/* XPM */
const char * ALIGN_PT_xpm[] = {
"24 24 19 1",
" 	g None",
".	g #DEDEDE",
"+	g #BEBEBE",
"@	g #DADADA",
"#	g #989898",
"$	g #C0C0C0",
"%	g #E5E5E5",
"&	g #D9D9D9",
"*	g #D0D0D0",
"=	g #727272",
"-	g #8F8F8F",
";	g #B0B0B0",
">	g #A2A2A2",
",	g #424242",
"'	g #575757",
")	g #6B6B6B",
"!	g #1E1E1E",
"~	g #252525",
"{	g #050505",
"                        ",
"                        ",
"                        ",
"                        ",
"                        ",
"     .            .     ",
"      +@        @+      ",
"      @#$%&**&%$#@      ",
"       $=-;>>;-=$       ",
"       %-,'))',-%       ",
"       &;'!~~!';&       ",
"       *>)~{{~)>*       ",
"       *>)~{{~)>*       ",
"       &;'!~~!';&       ",
"       %-,'))',-%       ",
"       $=-;>>;-=$       ",
"      @#$%&**&%$#@      ",
"      +@        @+      ",
"     .            .     ",
"                        ",
"                        ",
"                        ",
"                        ",
"                        "};
