/* XPM */
const char * ALIGN_PT_xpm[] = {
"24 24 29 1",
" 	c None",
".	c #AAA814",
"+	c #A4A213",
"@	c #A2A013",
"#	c #A9A714",
"$	c #8E8C11",
"%	c #999812",
"&	c #A6A413",
"*	c #A3A113",
"=	c #79790E",
"-	c #8C8A10",
";	c #9F9D13",
">	c #9B9912",
",	c #989612",
"'	c #62600C",
")	c #7C7A0F",
"!	c #939111",
"~	c #8B8910",
"{	c #868410",
"]	c #4A4809",
"^	c #5B5B0B",
"/	c #72700D",
"(	c #69670C",
"_	c #2B2B05",
":	c #393807",
"<	c #454408",
"[	c #141302",
"}	c #181703",
"|	c #040401",
"........................",
"........................",
"........................",
"........................",
"....+@....####....@+....",
"....@$%.#&****&#.%$@....",
".....%=-@;>,,>;@-=%.....",
"......-')!~{{~!)'-......",
".....#@)]^/((/^])@#.....",
".....&;!^_:<<:_^!;&.....",
"....#*>~/:[}}[:/~>*#....",
"....#*,{(<}||}<({,*#....",
"....#*,{(<}||}<({,*#....",
"....#*>~/:[}}[:/~>*#....",
".....&;!^_:<<:_^!;&.....",
".....#@)]^/((/^])@#.....",
"......-')!~{{~!)'-......",
".....%=-@;>,,>;@-=%.....",
"....@$%.#&****&#.%$@....",
"....+@....####....@+....",
"........................",
"........................",
"........................",
"........................"};
