/* XPM */
const char * amide_logo_xpm[] = {
"50 50 118 2",
"  	c None",
". 	c #2D2DC8",
"+ 	c #2E2EC7",
"@ 	c #2F2EC7",
"# 	c #2F2EC6",
"$ 	c #302EC6",
"% 	c #302EC5",
"& 	c #312EC5",
"* 	c #322FC5",
"= 	c #322FC4",
"- 	c #332FC4",
"; 	c #342FC3",
"> 	c #352FC2",
", 	c #332FC3",
"' 	c #3630C2",
") 	c #3630C1",
"! 	c #3730C1",
"~ 	c #3730C0",
"{ 	c #3830C0",
"] 	c #3930BF",
"^ 	c #5A55AC",
"/ 	c #3A31BF",
"( 	c #3A31BE",
"_ 	c #3B31BE",
": 	c #3C31BD",
"< 	c #3D31BD",
"[ 	c #3D31BC",
"} 	c #5D55AA",
"| 	c #5854AD",
"1 	c #3E32BC",
"2 	c #3E32BB",
"3 	c #3F32BB",
"4 	c #4032BA",
"5 	c #4132B9",
"6 	c #4233B9",
"7 	c #4233B8",
"8 	c #5C55AB",
"9 	c #4333B8",
"0 	c #4333B7",
"a 	c #3F32BA",
"b 	c #4433B7",
"c 	c #4533B7",
"d 	c #5F55A8",
"e 	c #4533B6",
"f 	c #4634B6",
"g 	c #4634B5",
"h 	c #4734B5",
"i 	c #4834B4",
"j 	c #4934B4",
"k 	c #4934B3",
"l 	c #6156A7",
"m 	c #4A35B3",
"n 	c #4A35B2",
"o 	c #4B35B2",
"p 	c #4C35B1",
"q 	c #4C35B2",
"r 	c #4D35B1",
"s 	c #4D35B0",
"t 	c #6758A3",
"u 	c #6357A5",
"v 	c #4E36B0",
"w 	c #4F36AF",
"x 	c #5036AE",
"y 	c #5136AE",
"z 	c #5136AD",
"A 	c #5237AD",
"B 	c #6958A1",
"C 	c #6557A4",
"D 	c #5237AC",
"E 	c #5337AC",
"F 	c #5437AB",
"G 	c #5537AB",
"H 	c #4E36AF",
"I 	c #5437AC",
"J 	c #5537AA",
"K 	c #5638AA",
"L 	c #5738A9",
"M 	c #5838A9",
"N 	c #5838A8",
"O 	c #5938A8",
"P 	c #5938A7",
"Q 	c #5A39A7",
"R 	c #5B39A6",
"S 	c #5C39A5",
"T 	c #5D39A5",
"U 	c #5E3AA4",
"V 	c #5F3AA3",
"W 	c #6F5A9C",
"X 	c #603AA3",
"Y 	c #603AA2",
"Z 	c #613AA2",
"` 	c #613AA1",
" .	c #735B9A",
"..	c #623BA1",
"+.	c #633BA0",
"@.	c #6C599F",
"#.	c #6D599D",
"$.	c #643BA0",
"%.	c #643B9F",
"&.	c #653B9F",
"*.	c #663C9E",
"=.	c #5C39A6",
"-.	c #5D39A4",
";.	c #673C9E",
">.	c #673C9D",
",.	c #683C9D",
"'.	c #683C9C",
").	c #693C9C",
"!.	c #6A3D9B",
"~.	c #6B3D9B",
"{.	c #745B99",
"].	c #6B3D9A",
"^.	c #6C3D9A",
"/.	c #6C3D99",
"(.	c #6D3D99",
"_.	c #633BA1",
":.	c #755C98",
"<.	c #6E3D98",
"                                                                                                    ",
"                                                                                                    ",
"                                                                                                    ",
"                                                                                                    ",
"                      . . + + @ # $ $ % & & * = - - ; ; ; >                                         ",
"                    + + @ # $ $ % & & * = - - , ; ; > > ' ) !                                       ",
"                  @ # $ $ $ & & * = - - , ; ; > > ' ) ! ! ~ {                                       ",
"                  $ $ & & * = - - , ; ; > > ' ) ! ! ~ { { ] ] ^                                     ",
"                  & * = - - , ; ; > > ' ) ) ! ~ { { ] ] / ( ( _                                     ",
"                  - - , ; ; > > ' ) ) ! ~ { { ] ] / ( ( _ _ : :                                     ",
"                    ; > > ' ) ) ! ~ { { ] ] ] / ( _ _ : : < [ [ }                                   ",
"                      | ) ! ~ { { ] ] ] / ( _ _ : : < [ [ 1 2 3 3                                   ",
"                                ] / ( _ _ : : : [ [ 1 2 3 3 4 4 4                                   ",
"                                _ _ : : : [ [ }   3 3 4 4 4 5 5 6 7                                 ",
"                              8 : : [ [ 1 2 3     4 4 5 5 6 7 9 9 0                                 ",
"                              [ [ 1 2 3 3 a 4     5 6 7 9 9 9 b b c                                 ",
"                              2 3 3 a 4 4 5 d       9 9 b b c e f f g                               ",
"                            } a 4 4 5 5 6 6         b c e f f g h h i                               ",
"                            4 5 5 6 6 7 9 9         f f g h h i i j k                               ",
"                            6 6 7 9 9 b b l           h i i j k k m n o                             ",
"                          7 9 9 b b c e e             j k k m n o o p p                             ",
"                          b b c e e f g h             m n o o q p p r s t                           ",
"                          e e f g h h i u               q p p r s v v w w                           ",
"                        f g h h i i i k                 r s v v w w w x x                           ",
"                        h i i i k k m m                 v w w w x x y z A B                         ",
"                        i j k m m o o C                   x x y z A A D E E                         ",
"                      k m m o o o p p                     z A A D E E F F G                         ",
"                      o o o p p r s v v H w w x x y z A A D E E I F G G J K K                       ",
"                      p p r s v v H w w x x y z A A D E E I F G G J K K L L M                       ",
"                    r s v v H w w x x y z z A A E E I F G G J K K L L M N N O                       ",
"                    v H w w x x y z z A A E E I F G G J K K L L M N N O P Q Q R                     ",
"                    w x x y y z A A E E I F F G J K K L L M N N O P Q Q R R R S                     ",
"                  x y y z A A E E I F F G J K K L L M N N O P Q Q R R R S S T T                     ",
"                  z A A E E I F F G J K K L L L N N O P Q Q R R R S S T T U U U V                   ",
"                B E E I F F G J K                             W T T U U U V V X Y                   ",
"                I F F G J K K L                                 U U V V X Y Z Z `  .                ",
"                G J K K L L L N                                 V X Y Z Z ` ....+.+.                ",
"              @.K L L L N N O #.                                  Z ` ....+.+.$.%.&.                ",
"              L L N N O O Q Q                                   ....+.+.$.%.%.&.&.*.*.              ",
"        L L N N O O Q Q Q R R =.S T T -.                  ....+.+.$.%.%.&.&.*.*.;.>.,.,.'.).        ",
"      M N O O Q Q Q R R =.S T T -.U U V                 +.+.$.$.%.&.&.*.*.;.>.>.,.'.).).!.!.~.      ",
"      O P Q Q R R =.S T T -.U U V V X Y Y             {.$.%.&.&.*.*.;.>.>.,.'.).).!.!.~.].].^.      ",
"      Q R R =.S T T -.U U V V X Y Y Z ` ..            &.&.*.*.;.>.>.,.'.).).!.!.!.].].^./.(.(.      ",
"      =.S S T -.U U V V X Y Y Z ` ...._.+.            :.;.>.>.,.'.).).!.!.!.].].^./.(.(.<.<.<.      ",
"      T -.U U V V X Y Y Z Z ...._.+.+.$.                ,.'.).).!.!.!.].].^./.(.(.<.<.<.<.<.<.      ",
"        V V X Y Y Z Z ...._.+.+.$.%.&.                    !.!.!.].].^./.(.(.(.<.<.<.<.<.<.<.        ",
"                                                                                                    ",
"                                                                                                    ",
"                                                                                                    ",
"                                                                                                    "};
