/* XPM */
const char * CT_xpm[] = {
"24 24 134 2",
"  	c None",
". 	c #7975C6",
"+ 	c #7A74C5",
"@ 	c #7974C5",
"# 	c #7A75C6",
"$ 	c #736EBB",
"% 	c #423F6C",
"& 	c #201F35",
"* 	c #24233B",
"= 	c #5A5793",
"- 	c #5D5998",
"; 	c #5B5794",
"> 	c #484575",
", 	c #545088",
"' 	c #585590",
") 	c #6662A6",
"! 	c #7974C6",
"~ 	c #7A74C6",
"{ 	c #716CB8",
"] 	c #212037",
"^ 	c #010101",
"/ 	c #000000",
"( 	c #0B0A12",
"_ 	c #1F1E33",
": 	c #25243D",
"< 	c #1B1A2D",
"[ 	c #030205",
"} 	c #040407",
"| 	c #3E3B65",
"1 	c #7975C5",
"2 	c #7974C4",
"3 	c #333153",
"4 	c #181727",
"5 	c #3D3B64",
"6 	c #38365B",
"7 	c #08080E",
"8 	c #3F3C66",
"9 	c #736EBA",
"0 	c #0C0C14",
"a 	c #12121E",
"b 	c #1D1C2F",
"c 	c #0E0D17",
"d 	c #1C1B2E",
"e 	c #1A192B",
"f 	c #464372",
"g 	c #7A75C5",
"h 	c #5F5B9A",
"i 	c #030305",
"j 	c #1E1D31",
"k 	c #6F6BB5",
"l 	c #3E3C65",
"m 	c #595591",
"n 	c #55518A",
"o 	c #736FBC",
"p 	c #302E4E",
"q 	c #726DB9",
"r 	c #6561A4",
"s 	c #514E84",
"t 	c #2B2A47",
"u 	c #06060B",
"v 	c #5A5692",
"w 	c #020204",
"x 	c #6763A8",
"y 	c #6965AB",
"z 	c #222037",
"A 	c #282641",
"B 	c #625E9F",
"C 	c #010103",
"D 	c #5C5997",
"E 	c #09080E",
"F 	c #2D2B49",
"G 	c #5B5895",
"H 	c #07070C",
"I 	c #6D69B1",
"J 	c #3C3961",
"K 	c #0F0F19",
"L 	c #746FBD",
"M 	c #11111C",
"N 	c #39375D",
"O 	c #595692",
"P 	c #5D5A98",
"Q 	c #000001",
"R 	c #545189",
"S 	c #726DBA",
"T 	c #524F86",
"U 	c #7772C1",
"V 	c #3F3D67",
"W 	c #343255",
"X 	c #706CB6",
"Y 	c #484576",
"Z 	c #5F5B9B",
"` 	c #212036",
" .	c #454371",
"..	c #6F6AB4",
"+.	c #595590",
"@.	c #37355A",
"#.	c #0B0B13",
"$.	c #57538E",
"%.	c #6864A9",
"&.	c #313051",
"*.	c #131320",
"=.	c #474473",
"-.	c #333154",
";.	c #11101C",
">.	c #373459",
",.	c #7671BF",
"'.	c #403D68",
").	c #050408",
"!.	c #716DB8",
"~.	c #6964AA",
"{.	c #25233C",
"].	c #58548F",
"^.	c #7873C4",
"/.	c #7873C3",
"(.	c #6C67AF",
"_.	c #7470BD",
":.	c #0C0B13",
"<.	c #050509",
"[.	c #403E69",
"}.	c #2F2D4D",
"|.	c #030204",
"1.	c #7772C2",
"2.	c #292743",
"3.	c #0D0C15",
"4.	c #5D5997",
"5.	c #4C497C",
"6.	c #030306",
"7.	c #7874C4",
"8.	c #6E6AB3",
"9.	c #010102",
"0.	c #534F86",
"a.	c #1E1D32",
"b.	c #595691",
"c.	c #4E4B7F",
". + @ # @ @ # # # # # @ @ @ @ @ @ @ @ @ @ @ @ # ",
"# # # # @ @ # # # # # @ @ @ @ @ @ @ @ @ @ @ @ # ",
"# . # # @ @ # # # # # @ @ @ @ @ @ @ @ @ @ @ @ # ",
". @ @ # @ @ # # # # # @ @ @ @ @ @ @ @ @ @ @ @ # ",
". . . # @ $ % & * = - ; @ = > > > > > , ' ) @ # ",
"@ ! ~ # { ] ^ / / ( _ : @ < / / / / / [ } | @ # ",
". 1 1 2 3 / 4 5 6 7 ^ 8 9 0 a b c } d e ^ f @ # ",
"g 1 1 h i j k # @ l / m ) i n o p 4 q r i s @ # ",
"~ @ @ t u r # # # v w x , w y @ z A @ B C D @ # ",
". 1 $ E F @ # # # G H I J K L 2 M N @ O / x @ # ",
". 1 P Q R @ # # # S T U V W @ X 7 Y @ Z ` L @ # ",
"! !  .} ..@ # # # # # @ @ @ @ ) i +.@ @ @ @ @ # ",
"! . @.#.@ ! # # # # # @ @ @ @ $./ %.@ @ @ @ @ # ",
"~ ~ &.*.+ + # # # # # @ @ @ @ =.H { @ @ @ @ @ # ",
"# + -.;.+ + # # # # # @ @ @ @ >.a ,.@ @ @ @ @ # ",
"# # '.).!.+ # # @ ~.@ @ @ @ @ {.& @ @ @ @ @ @ # ",
"~ ~ ]./ % ^.# /.m *.(.@ @ _.o a F _.@ @ @ @ @ # ",
"# # $ :.<.W [.}.u |.; @ 1.2.b i 3._ 4.@ @ @ @ # ",
"# . # 5.6./ / / <.V 7.@ 8.0 9./ / / P @ @ @ @ # ",
"~ ~ g @ 0.* a.t b.# # @ ,.= c.> > > q @ @ @ @ # ",
"! . # # @ @ # # # # # @ @ @ @ @ @ @ @ @ @ @ @ # ",
". . # # @ @ # # # # # @ @ @ @ @ @ @ @ @ @ @ @ # ",
"! ! ~ # @ @ # # # # # @ @ @ @ @ @ @ @ @ @ @ @ # ",
"g # ! # @ @ # # # # # @ @ @ @ @ @ @ @ @ @ @ @ # "};
