/* XPM */
static char * CT_xpm[] = {
"24 24 154 2",
"  	c None",
". 	c #000000",
"+ 	c #383838",
"@ 	c #474747",
"# 	c #242424",
"$ 	c #131313",
"% 	c #151515",
"& 	c #0E0E0E",
"* 	c #010101",
"= 	c #101010",
"- 	c #4D4D4D",
"; 	c #5F5F5F",
"> 	c #666666",
", 	c #616161",
"' 	c #565656",
") 	c #424242",
"! 	c #141414",
"~ 	c #3A3A3A",
"{ 	c #4E4E4E",
"] 	c #5A5A5A",
"^ 	c #6C6C6C",
"/ 	c #838383",
"( 	c #9A9A9A",
"_ 	c #717171",
": 	c #656565",
"< 	c #575757",
"[ 	c #232323",
"} 	c #2E2E2E",
"| 	c #676767",
"1 	c #686868",
"2 	c #D2D2D2",
"3 	c #D4D4D4",
"4 	c #7C7C7C",
"5 	c #626262",
"6 	c #2A2A2A",
"7 	c #646464",
"8 	c #8A8A8A",
"9 	c #AEAEAE",
"0 	c #8C8C8C",
"a 	c #707070",
"b 	c #7A7A7A",
"c 	c #C2C2C2",
"d 	c #DDDDDD",
"e 	c #6D6D6D",
"f 	c #5D5D5D",
"g 	c #747474",
"h 	c #1F1F1F",
"i 	c #0A0A0A",
"j 	c #4F4F4F",
"k 	c #A6A6A6",
"l 	c #919191",
"m 	c #171717",
"n 	c #C9C9C9",
"o 	c #EDEDED",
"p 	c #D6D6D6",
"q 	c #525252",
"r 	c #BCBCBC",
"s 	c #7E7E7E",
"t 	c #595959",
"u 	c #161616",
"v 	c #080808",
"w 	c #333333",
"x 	c #111111",
"y 	c #0B0B0B",
"z 	c #090909",
"A 	c #222222",
"B 	c #A8A8A8",
"C 	c #484848",
"D 	c #363636",
"E 	c #5E5E5E",
"F 	c #4C4C4C",
"G 	c #030303",
"H 	c #2F2F2F",
"I 	c #0C0C0C",
"J 	c #020202",
"K 	c #343434",
"L 	c #070707",
"M 	c #0F0F0F",
"N 	c #191919",
"O 	c #808080",
"P 	c #6A6A6A",
"Q 	c #868686",
"R 	c #1D1D1D",
"S 	c #1B1B1B",
"T 	c #181818",
"U 	c #BBBBBB",
"V 	c #5B5B5B",
"W 	c #A4A4A4",
"X 	c #737373",
"Y 	c #040404",
"Z 	c #060606",
"` 	c #252525",
" .	c #1A1A1A",
"..	c #B0B0B0",
"+.	c #606060",
"@.	c #585858",
"#.	c #272727",
"$.	c #050505",
"%.	c #212121",
"&.	c #303030",
"*.	c #3C3C3C",
"=.	c #2C2C2C",
"-.	c #323232",
";.	c #404040",
">.	c #545454",
",.	c #353535",
"'.	c #535353",
").	c #909090",
"!.	c #373737",
"~.	c #5C5C5C",
"{.	c #ABABAB",
"].	c #3F3F3F",
"^.	c #434343",
"/.	c #4B4B4B",
"(.	c #2D2D2D",
"_.	c #292929",
":.	c #3B3B3B",
"<.	c #C1C1C1",
"[.	c #828282",
"}.	c #AFAFAF",
"|.	c #3D3D3D",
"1.	c #414141",
"2.	c #464646",
"3.	c #262626",
"4.	c #555555",
"5.	c #6B6B6B",
"6.	c #505050",
"7.	c #444444",
"8.	c #787878",
"9.	c #757575",
"0.	c #7F7F7F",
"a.	c #515151",
"b.	c #979797",
"c.	c #949494",
"d.	c #494949",
"e.	c #4A4A4A",
"f.	c #929292",
"g.	c #313131",
"h.	c #121212",
"i.	c #0D0D0D",
"j.	c #A5A5A5",
"k.	c #393939",
"l.	c #454545",
"m.	c #6F6F6F",
"n.	c #7B7B7B",
"o.	c #8F8F8F",
"p.	c #636363",
"q.	c #E3E3E3",
"r.	c #8D8D8D",
"s.	c #282828",
"t.	c #898989",
"u.	c #8B8B8B",
"v.	c #202020",
"w.	c #2B2B2B",
". . . . . . . . . + @ # $ % & * . . . . . . . . ",
". . . . . . . . = - ; > > , ' ) % . . . . . . . ",
". . . . . . ! ~ { ] ^ / ( _ _ : < [ . . . . . . ",
". . . . * } { ; | | 1 2 3 3 4 > : 5 # . . . . . ",
". . . . 6 7 8 9 0 a b c b d 0 e f g e h . . . . ",
". . . i j f k l [ m + n o p q ] r 3 s t u . . . ",
". . v ) ] ; w x y & z A B C i $ D ~ { E F G . . ",
". . H E : H I m ! h u J K H L M N & } O F h . . ",
". . @ P Q R m i v R S M = m x m T = * < U e J . ",
". z V W X J Y & z Z w z y x M ` M  .i S ..+.! . ",
". $ @.P #.I ! N I $ ` M R $ z M . $.M %.^ q &.. ",
". *.] E ! M h =.-.;.>.,.h T ! T  .M v G '.).; G ",
". !.~.{.= T K ].^.{ @./.&.&.(.H } _.%.u :.<.[.#.",
"v ) t }.S S |.1.2.'.t F *.*.*.!.w (.3.% { ^ 4.} ",
"%.E ] 5.,.h *.2.6.< >./.@ 7.1.].|.&.! G 5.8.@.S ",
"% 4.V 9.0.& K ^.6.' >.a.j F { q < j &.y _ b.5.z ",
"_.{ ] 9.c.= =.C a.' < 4.' t V ~.; t 4./.[.| d.. ",
";.].C ] 7 _.R ) 4.' ' < @.t V ~.; ~.7 X ] q # . ",
"= h G ].> V h -.e.' @.V E ~.V t ~.@.] f., g.. . ",
". . . h.+.^ 1 } ;.6.' ~., E E V ] V /.0 1 i.. . ",
". . . . w t j.a 7.k.l.q E E , 5 ~.q m.n.].. . . ",
". . . . G *.f o.k _ p.^ q.[.+.a a r.s d.L . . . ",
". . . . . J s./.7 , 0.r.l t.0 +.u.F D i . . . . ",
". . . . . . . J m _.` v.=.w.s.T v.& . . . . . . "};
