/* XPM */
const char * icon_thresholding_per_slice_xpm[] = {
"24 24 12 1",
" 	c None",
".	c #B0B0B0",
"+	c #AEAEAE",
"@	c #060606",
"#	c #000000",
"$	c #282828",
"%	c #6B6B6B",
"&	c #5F5F5F",
"*	c #3C3C3C",
"=	c #A1A1A1",
"-	c #7C7C7C",
";	c #797979",
"                        ",
"  .++++++++++++++++++.  ",
"  @##################@  ",
"  @#$%%%%%%%%%%%%%%$#@  ",
"  @#&              &#@  ",
"  @#&              &#@  ",
"  @#&              &#@  ",
"  @#&              &#@  ",
"  @#&              &#@  ",
"  @#&              &#@  ",
"  @#&              &#@  ",
"  @#&              &#@  ",
"  @#&              &#@  ",
"  @#&              &#@  ",
"  @#&              &#@  ",
"  @#&              &#@  ",
"  @#&              &#@  ",
"  @#&              &#@  ",
"  @#&              &#@  ",
"  @#&              &#@  ",
"  @#*==============*#@  ",
"  @##################@  ",
"  -;;;;;;;;;;;;;;;;;;-  ",
"                        "};
