/* XPM */
const char * icon_view_linked3_xpm[] = {
"36 36 39 1",
" 	c None",
".	c #000000",
"+	c #000542",
"@	c #0013FC",
"#	c #0013FF",
"$	c #0010DA",
"%	c #000B95",
"&	c #000B8E",
"*	c #000EB7",
"=	c #000003",
"-	c #000FC6",
";	c #0011E5",
">	c #000EB9",
",	c #0011DF",
"'	c #0013FE",
")	c #00021B",
"!	c #00032E",
"~	c #00021E",
"{	c #0013F8",
"]	c #000CA5",
"^	c #0011E3",
"/	c #00021C",
"(	c #000435",
"_	c #0012ED",
":	c #000438",
"<	c #00021D",
"[	c #0012F0",
"}	c #0012EF",
"|	c #000DB0",
"1	c #000DA9",
"2	c #000001",
"3	c #000DB3",
"4	c #000CA1",
"5	c #000CA3",
"6	c #0011E7",
"7	c #000A8A",
"8	c #0013FD",
"9	c #0012EE",
"0	c #000544",
"                                    ",
"     ...                            ",
"      ......                        ",
"      +  .....                      ",
"     @##    .....                   ",
"     $%##      .....                ",
"    #&.*#         .....             ",
"    #%=-#         .....             ",
"     ;>##      .....                ",
"     ,'#    .....                   ",
"      )  .....                      ",
"      ......                        ",
"     ...   ...                      ",
"           ......                   ",
"           !~ ......                ",
"           {#    ......             ",
"          #]^#      ......          ",
"          #/(##        .....        ",
"          #/(##        .....        ",
"          #]^#      ......          ",
"           _#    ......             ",
"           :~ ......                ",
"           ......                   ",
"           ...   ..                 ",
"                 .....              ",
"                 <  .....           ",
"                ['#    .....        ",
"                }|##      .....     ",
"                123#         .....  ",
"                4.5#         .....  ",
"                678#      ......    ",
"                9##    ......       ",
"                 0  ......          ",
"                 ......             ",
"                ....                ",
"                                    "};
