/* XPM */
const char * icon_transfer_function_xpm[] = {
"24 24 37 1",
" 	c None",
".	c #000000",
"+	c #003200",
"@	c #00B600",
"#	c #009D00",
"$	c #004900",
"%	c #00DE00",
"&	c #00FF00",
"*	c #008100",
"=	c #00F400",
"-	c #00B200",
";	c #004C00",
">	c #00D900",
",	c #00D200",
"'	c #005900",
")	c #00A600",
"!	c #001700",
"~	c #00F500",
"{	c #007E00",
"]	c #00CF00",
"^	c #005500",
"/	c #00FE00",
"(	c #009F00",
"_	c #00F300",
":	c #006600",
"<	c #00FA00",
"[	c #005A00",
"}	c #00F900",
"|	c #006400",
"1	c #003E00",
"2	c #007F00",
"3	c #00F800",
"4	c #001600",
"5	c #005200",
"6	c #007100",
"7	c #007300",
"8	c #004700",
"..                      ",
"..                      ",
"..                     +",
"..                    @#",
"..                  $%&#",
"..                 *=&&#",
"..                -&&&&#",
"..              ;>&&&&&#",
"..              ,&&&&&&#",
"..             '&&&&&&&#",
"..             )&&&&&&&#",
"..            !~&&&&&&&#",
"..            {&&&&&&&&#",
"..            ]&&&&&&&&#",
"..           ^/&&&&&&&&#",
"..           (&&&&&&&&&#",
"..           _&&&&&&&&&#",
"..          *&&&&&&&&&&#",
"..         :<&&&&&&&&&&#",
"..        [}&&&&&&&&&&&#",
"..       |}&&&&&&&&&&&&#",
"..     123&&&&&&&&&&&&&#",
".....4567777777777777778",
"........................"};
