/* XPM */
static char * icon_threshold_global_xpm[] = {
"24 24 78 1",
" 	c None",
".	c #CCCCCC",
"+	c #ADADAD",
"@	c #E3E3E3",
"#	c #6C6C6C",
"$	c #010101",
"%	c #000000",
"&	c #141414",
"*	c #EBEBEB",
"=	c #DFDFDF",
"-	c #363636",
";	c #080808",
">	c #9C9C9C",
",	c #CFCFCF",
"'	c #C2C2C2",
")	c #303030",
"!	c #E1E1E1",
"~	c #B3B3B3",
"{	c #131313",
"]	c #656565",
"^	c #8D8D8D",
"/	c #C0C0C0",
"(	c #D3D3D3",
"_	c #282828",
":	c #404040",
"<	c #161616",
"[	c #797979",
"}	c #020202",
"|	c #0B0B0B",
"1	c #A1A1A1",
"2	c #969696",
"3	c #787878",
"4	c #232323",
"5	c #E6E6E6",
"6	c #3F3F3F",
"7	c #070707",
"8	c #8A8A8A",
"9	c #B6B6B6",
"0	c #6B6B6B",
"a	c #898989",
"b	c #646464",
"c	c #717171",
"d	c #525252",
"e	c #C6C6C6",
"f	c #747474",
"g	c #959595",
"h	c #696969",
"i	c #7C7C7C",
"j	c #B2B2B2",
"k	c #888888",
"l	c #5C5C5C",
"m	c #7F7F7F",
"n	c #434343",
"o	c #3E3E3E",
"p	c #545454",
"q	c #0A0A0A",
"r	c #050505",
"s	c #E7E7E7",
"t	c #4D4D4D",
"u	c #737373",
"v	c #0C0C0C",
"w	c #A6A6A6",
"x	c #3C3C3C",
"y	c #2C2C2C",
"z	c #D6D6D6",
"A	c #AFAFAF",
"B	c #727272",
"C	c #424242",
"D	c #5D5D5D",
"E	c #1B1B1B",
"F	c #7D7D7D",
"G	c #D1D1D1",
"H	c #6F6F6F",
"I	c #9A9A9A",
"J	c #242424",
"K	c #B4B4B4",
"L	c #ABABAB",
"M	c #C1C1C1",
"                        ",
"        .+++++++++++++@ ",
"       #$%%%%%%%%%%%%%&*",
"     =-%;>,,,,,,,,')%%%!",
"    ~{%]^/       (_%:<%!",
"   [}|1 2/      1|}3 4%!",
" 56%78990a99999b${~  4%!",
" c%%%%%%%%%%%%%%)=   4%!",
" d%8eeeefgeeeeh%i    4%!",
" d%j    2/    k%i    4%!",
" d%j    2/    k%i    4%!",
" d%j    2/    k%i    4%!",
" d%j    2/    k%i    4%!",
" d%j    2/    k%i    4%!",
" d%j    2/    k%i    4%!",
" d%j    2/    k%i    4%!",
" d%j    2/    k%i    4%!",
" d%j    l0mmmmn%ommmpqrs",
" d%j  !t9     k%i  u$vw ",
" d%j 9t!      k%i@x%yz  ",
" d%AiB        k%C<%D    ",
" d%EFGGGGGGGGGH%%;I     ",
" H%%%%%%%%%%%%%%J,      ",
"  KLLLLLLLLLLLLM        "};
