/* XPM */
static char * icon_amide_xpm[] = {
"32 32 123 2",
"  	c None",
". 	c #1F2AD3",
"+ 	c #212AD2",
"@ 	c #222BD1",
"# 	c #232BD1",
"$ 	c #242BD0",
"% 	c #252BCF",
"& 	c #262CCE",
"* 	c #282CCD",
"= 	c #292CCC",
"- 	c #232BD0",
"; 	c #242BCF",
"> 	c #262CCF",
", 	c #272CCE",
"' 	c #2A2DCB",
") 	c #2B2DCA",
"! 	c #2C2DC9",
"~ 	c #2C2DCA",
"{ 	c #2D2DC9",
"] 	c #2E2EC8",
"^ 	c #2F2EC8",
"/ 	c #302EC7",
"( 	c #272CCD",
"_ 	c #282CCC",
": 	c #2A2DCC",
"< 	c #2B2DCB",
"[ 	c #2F2EC7",
"} 	c #312EC6",
"| 	c #322FC6",
"1 	c #332FC5",
"2 	c #2D2EC9",
"3 	c #322FC5",
"4 	c #342FC4",
"5 	c #3630C3",
"6 	c #352FC3",
"7 	c #3730C2",
"8 	c #3830C1",
"9 	c #3931C0",
"0 	c #3730C1",
"a 	c #3A31C0",
"b 	c #3B31BF",
"c 	c #3C31BE",
"d 	c #3530C3",
"e 	c #3630C2",
"f 	c #3D32BD",
"g 	c #3F32BC",
"h 	c #4032BB",
"i 	c #3930C0",
"j 	c #3E32BD",
"k 	c #4133BA",
"l 	c #4233B9",
"m 	c #4233BA",
"n 	c #4333B9",
"o 	c #4433B8",
"p 	c #4533B7",
"q 	c #3E32BC",
"r 	c #4534B7",
"s 	c #4734B6",
"t 	c #4834B5",
"u 	c #4934B5",
"v 	c #4935B4",
"w 	c #4A35B3",
"x 	c #4B35B3",
"y 	c #4C35B2",
"z 	c #4D35B2",
"A 	c #4E36B1",
"B 	c #4634B6",
"C 	c #4A35B4",
"D 	c #4D36B1",
"E 	c #4E36B0",
"F 	c #5036B0",
"G 	c #5136AF",
"H 	c #5237AE",
"I 	c #4934B4",
"J 	c #4F36B0",
"K 	c #5036AF",
"L 	c #5137AE",
"M 	c #5337AD",
"N 	c #5537AC",
"O 	c #4634B7",
"P 	c #4C35B3",
"Q 	c #5437AD",
"R 	c #5638AB",
"S 	c #5738AA",
"T 	c #5838A9",
"U 	c #5437AC",
"V 	c #5538AB",
"W 	c #5938A9",
"X 	c #5A39A8",
"Y 	c #5B39A7",
"Z 	c #5939A9",
"` 	c #5C39A6",
" .	c #5E3AA5",
"..	c #5C39A7",
"+.	c #5D39A6",
"@.	c #5F3AA4",
"#.	c #603AA3",
"$.	c #613BA2",
"%.	c #5D3AA6",
"&.	c #613AA3",
"*.	c #623BA2",
"=.	c #633BA1",
"-.	c #643BA0",
";.	c #653CA0",
">.	c #663C9F",
",.	c #5838AA",
"'.	c #5F3AA5",
").	c #603AA4",
"!.	c #613BA3",
"~.	c #673C9F",
"{.	c #683C9E",
"].	c #693D9D",
"^.	c #653BA0",
"/.	c #673C9E",
"(.	c #683C9D",
"_.	c #6A3D9C",
":.	c #6C3D9B",
"<.	c #5939A8",
"[.	c #5B39A8",
"}.	c #643BA1",
"|.	c #6B3D9B",
"1.	c #6D3E9A",
"2.	c #6E3E99",
"                                                                ",
"                                                                ",
"                                                                ",
"                                                                ",
"                                                                ",
"                . + @ # $ % & * =                               ",
"              + @ - ; > , * = ' ) !                             ",
"            @ - % & , * = ' ~ { ] ^ /                           ",
"              & ( _ : < ~ { ] [ } | 1                           ",
"                ' < ~ 2 ^ / } 3 1 4 5                           ",
"                    ^ / } 3   6 5 7 8 9                         ",
"                    | 1 4 6   0 8 a b c                         ",
"                  1 4 d e 8     b c f g h                       ",
"                  5 7 8 i       j g h k l                       ",
"                  8 9 b c       h m n o p                       ",
"                a b c f q         o r s t u                     ",
"                c j g h           s t v w x                     ",
"                g h k l           v x y z A                     ",
"              h m n o r B s u C x y D E F G H                   ",
"              n o r s t I C x y A J K L H M N                   ",
"              O s t v w P z A J K L M Q N R S T                 ",
"            s t C x y D A J G H M U V R S W X Y                 ",
"            C x y D                   Z X Y `  .                ",
"          x y A J K                   ..+. .@.#.$.              ",
"      y z A J K L M U N           ` %. .@.&.*.=.-.;.>.          ",
"      A J G H M U V R ,.W         '.).!.*.=.-.>.~.{.].          ",
"      G H M U R S T Z X Y         !.*.=.^.>./.(.]._.:.          ",
"      Q N R S T <.[...+.          }.;.>./.(._.|.:.1.2.          ",
"                                                                ",
"                                                                ",
"                                                                ",
"                                                                "};
