/* XPM */
const char * icon_view_transverse_xpm[] = {
"36 36 2 1",
" 	c None",
".	c #000000",
"                                    ",
"                                    ",
"                                    ",
"                                    ",
"                                    ",
"                                    ",
"                                    ",
"                                    ",
"                                    ",
"                                    ",
"              ........              ",
"            ............            ",
"           ....      ....           ",
"     ..   ....        ...    .      ",
"   ...... ...      ..  ... ......   ",
"  ..........      ....  ..........  ",
" ...    ...       ....  ....   ...  ",
" ..     ...       ....   ..     ... ",
" ..      ..      .....   ..      .. ",
" ..      ..      .....   ..     ... ",
" ...    ...       ....  ....    ... ",
"  ..........      ....  ..........  ",
"   .........       ..  ..........   ",
"    ....  ...          ...  ....    ",
"           ...       ....           ",
"            ............            ",
"             ..........             ",
"               .....                ",
"                                    ",
"                                    ",
"                                    ",
"                                    ",
"                                    ",
"                                    ",
"                                    ",
"                                    "};
