/* XPM */
static char * icon_interpolation_nearest_neighbor_xpm[] = {
"24 24 75 1",
" 	c None",
".	c #434343",
"+	c #000000",
"@	c #2F2F2F",
"#	c #424242",
"$	c #414141",
"%	c #B8B8B8",
"&	c #FFC9C9",
"*	c #FFDCDC",
"=	c #FF1C1C",
"-	c #FF7F7F",
";	c #949494",
">	c #CECECE",
",	c #E53E3E",
"'	c #F93E3E",
")	c #CCCCCC",
"!	c #6D0000",
"~	c #EC0000",
"{	c #0A0000",
"]	c #989898",
"^	c #737373",
"/	c #966565",
"(	c #FF0000",
"_	c #804F4F",
":	c #FF0F0F",
"<	c #FF9292",
"[	c #FF4444",
"}	c #FF5757",
"|	c #FF8080",
"1	c #FFBBBB",
"2	c #FF0101",
"3	c #FFDFDF",
"4	c #FFECEC",
"5	c #FF0A0A",
"6	c #FFA5A5",
"7	c #FF3232",
"8	c #FF6A6A",
"9	c #FF6D6D",
"0	c #FF2F2F",
"a	c #FFA8A8",
"b	c #FF0808",
"c	c #FFEBEB",
"d	c #FFE3E3",
"e	c #D99292",
"f	c #C2C2C2",
"g	c #B6B6B6",
"h	c #636262",
"i	c #DF0000",
"j	c #820000",
"k	c #626262",
"l	c #797979",
"m	c #010101",
"n	c #4A4A4A",
"o	c #252525",
"p	c #480000",
"q	c #1C0000",
"r	c #3D3D3D",
"s	c #0D0D0D",
"t	c #9D9D9D",
"u	c #AAAAAA",
"v	c #818181",
"w	c #9B9B9B",
"x	c #999999",
"y	c #838383",
"z	c #3B3B3B",
"A	c #6B6B6B",
"B	c #8A8A8A",
"C	c #C3C3C3",
"D	c #A2A2A2",
"E	c #ACACAC",
"F	c #121212",
"G	c #6F6F6F",
"H	c #BEBEBE",
"I	c #727272",
"J	c #DBDBDB",
"    .++++++++           ",
"    .+@###$++           ",
"    .+%    ++           ",
"    .+% &* ++           ",
"    .+% =- ++           ",
"    .+;>,')++           ",
"    .+++!~{++           ",
"    ]^^^/(_^^           ",
"         :<             ",
"         [}             ",
"         |=             ",
"         123            ",
"         456            ",
"          78            ",
"          90            ",
"          abc           ",
"          d(e        fg ",
"          hijk      lm+n",
"          opqo      r++s",
" tu       v++w      x++y",
"z++A      B++C      D++E",
"F++#      B++C      D++E",
"G++H      B++C      D++E",
"I++J      B++C      D++E"};
