/* XPM */
const char * icon_interpolation_bilinear_xpm[] = {
"24 24 71 1",
" 	c None",
".	c #434343",
"+	c #000000",
"@	c #2F2F2F",
"#	c #424242",
"$	c #414141",
"%	c #B8B8B8",
"&	c #FFADAD",
"*	c #FFD9D9",
"=	c #FF0000",
"-	c #FFCDCD",
";	c #949494",
">	c #D5AFAF",
",	c #D7A5A5",
"'	c #CCCCCC",
")	c #260000",
"!	c #320000",
"~	c #989898",
"{	c #737373",
"]	c #886262",
"^	c #8F5D5D",
"/	c #BABABA",
"(	c #C2C2C2",
"_	c #B6B6B6",
":	c #626262",
"<	c #210000",
"[	c #797979",
"}	c #010101",
"|	c #4A4A4A",
"1	c #FFE9E9",
"2	c #FF7D7D",
"3	c #FF5C5C",
"4	c #E90505",
"5	c #EF0000",
"6	c #110000",
"7	c #252525",
"8	c #3D3D3D",
"9	c #0D0D0D",
"0	c #9D9D9D",
"a	c #AAAAAA",
"b	c #FFD5D5",
"c	c #FF8B8B",
"d	c #FF4242",
"e	c #FF0707",
"f	c #FF1C1C",
"g	c #FF5E5E",
"h	c #A85555",
"i	c #120000",
"j	c #9B9B9B",
"k	c #999999",
"l	c #838383",
"m	c #3B3B3B",
"n	c #190000",
"o	c #960000",
"p	c #EC0F0F",
"q	c #FF3737",
"r	c #FF8686",
"s	c #FFCACA",
"t	c #8A8A8A",
"u	c #C3C3C3",
"v	c #A2A2A2",
"w	c #ACACAC",
"x	c #121212",
"y	c #0F0000",
"z	c #9C0000",
"A	c #903434",
"B	c #FFECEC",
"C	c #6F6F6F",
"D	c #BEBEBE",
"E	c #727272",
"F	c #DBDBDB",
"    .++++++++           ",
"    .+@###$++           ",
"    .+%    ++           ",
"    .+% &  ++           ",
"    .+%*=- ++           ",
"    .+;>=,'++           ",
"    .++)=!+++           ",
"    ~{{]=^{{{           ",
"       *=-              ",
"       *=-              ",
"       *=-              ",
"       *=-              ",
"       *=-              ",
"       *=-              ",
"       *=-              ",
"       *=-              ",
"       *=- //        (_ ",
"       *=-:<+:      [}+|",
"       1234567      8++9",
" 0a bcdefghi+j      k++l",
"mnopeqrs  t++u      v++w",
"xyzAB     t++u      v++w",
"C++D      t++u      v++w",
"E++F      t++u      v++w"};
