/* XPM */
static char * icon_interpolation_2x2x2_xpm[] = {
"24 24 112 2",
"  	c None",
". 	c #BCBCBC",
"+ 	c #000000",
"@ 	c #969696",
"# 	c #202020",
"$ 	c #424242",
"% 	c #2A2A2A",
"& 	c #7D7D7D",
"* 	c #A3A3A3",
"= 	c #FFC7C7",
"- 	c #FFE2E2",
"; 	c #FF0000",
"> 	c #656565",
", 	c #D3B6B6",
"' 	c #D1C0C0",
") 	c #838383",
"! 	c #1D0000",
"~ 	c #110000",
"{ 	c #DADADA",
"] 	c #737373",
"^ 	c #836666",
"/ 	c #7C6C6C",
"( 	c #C6C6C6",
"_ 	c #FFE6E6",
": 	c #FFCCCC",
"< 	c #FFD7D7",
"[ 	c #FFE7E7",
"} 	c #FF0808",
"| 	c #FFD3D3",
"1 	c #FF1515",
"2 	c #FFCACA",
"3 	c #FFBCBC",
"4 	c #FFCECE",
"5 	c #FFC0C0",
"6 	c #FFB6B6",
"7 	c #FF5555",
"8 	c #FF0606",
"9 	c #FFA1A1",
"0 	c #FFC9C9",
"a 	c #FF0707",
"b 	c #FFD5D5",
"c 	c #FCC5C5",
"d 	c #FE0808",
"e 	c #5D2727",
"f 	c #F70000",
"g 	c #323232",
"h 	c #E8E8E8",
"i 	c #131313",
"j 	c #545454",
"k 	c #D3CFCF",
"l 	c #100000",
"m 	c #480000",
"n 	c #020202",
"o 	c #DEDEDE",
"p 	c #AEAEAE",
"q 	c #060606",
"r 	c #F7E6E6",
"s 	c #EFD2D2",
"t 	c #F7CDCD",
"u 	c #EFEBEB",
"v 	c #252525",
"w 	c #444444",
"x 	c #E4E4E4",
"y 	c #ABABAB",
"z 	c #EBEBEB",
"A 	c #090909",
"B 	c #696969",
"C 	c #FDD3D3",
"D 	c #473737",
"E 	c #2B0E0E",
"F 	c #E7E7E7",
"G 	c #4C2222",
"H 	c #1C1818",
"I 	c #282828",
"J 	c #717171",
"K 	c #0E0E0E",
"L 	c #373737",
"M 	c #0A0A0A",
"N 	c #F5CBCB",
"O 	c #0C0808",
"P 	c #310000",
"Q 	c #060000",
"R 	c #BFBFBF",
"S 	c #E2E2E2",
"T 	c #0B0303",
"U 	c #010000",
"V 	c #0B0B0B",
"W 	c #080808",
"X 	c #030303",
"Y 	c #ECE7E7",
"Z 	c #DFB5B5",
"` 	c #505050",
" .	c #2C2C2C",
"..	c #414141",
"+.	c #151515",
"@.	c #666666",
"#.	c #0D0D0D",
"$.	c #383434",
"%.	c #2E0404",
"&.	c #303030",
"*.	c #4B4B4B",
"=.	c #3F3F3F",
"-.	c #646464",
";.	c #191919",
">.	c #8A8A8A",
",.	c #111010",
"'.	c #190000",
").	c #040000",
"!.	c #A7A7A7",
"~.	c #E6E6E6",
"{.	c #616161",
"].	c #272727",
"      . + + + + + + + @                         ",
"      . + # $ $ $ % + @                         ",
"      . + &       * + @                         ",
"      . + &   =   * + @                         ",
"      . + & - ;   * + @                         ",
"      . + > , ; ' ) + @                         ",
"      . + + ! ; ~ + + @                         ",
"      { ] ] ^ ; / ] ] (                         ",
"        _ _ : ; < _ _ _ _ [                     ",
"        ; ; ; ; ; ; ; ; ; }                     ",
"        ; | | ; 1 2     3 }                     ",
"  4 4 5 ; 6 7 8 9 4 4   0 }                     ",
"  ; a } ; a } } } a ;   0 }                     ",
"  ; b   ; -       b ;   c d                 (   ",
"  ; b   ; -       b ;   e f g           h i + j ",
"  ; b   ; -       b ; k l m n o         p + + q ",
"  ; b r ; s       t ; u v + w       x y z A + B ",
"  ; C D ; E F     G ; H I + J     F K + L M + @ ",
"  ; N O P Q R   S T P U V + J     R + + W X + @ ",
"Y ; Z ` +  .      L + ..g + J       +.+ @.#.+ @ ",
"$.; %.&.+ *.      =.+ -.g + J       ;.+ >.#.+ @ ",
",.'.).!.~.        =.+ -.z ~.        ;.+ >.h ~.  ",
"{.+ ].            =.+ -.            ;.+ >.      ",
"-.+ =.            =.+ -.            ;.+ >.      "};
