/* XPM */
const char * icon_thresholding_per_frame_xpm[] = {
"24 24 63 1",
" 	c None",
".	c #898989",
"+	c #7C7C7C",
"@	c #C5C5C5",
"#	c #1A1A1A",
"$	c #000000",
"%	c #080808",
"&	c #050505",
"*	c #8E8E8E",
"=	c #191919",
"-	c #060606",
";	c #929292",
">	c #ACACAC",
",	c #141414",
"'	c #676767",
")	c #5C5C5C",
"!	c #414141",
"~	c #ECECEC",
"{	c #6E6E6E",
"]	c #6D6D6D",
"^	c #101010",
"/	c #505050",
"(	c #484848",
"_	c #E1E1E1",
":	c #747474",
"<	c #DEDEDE",
"[	c #151515",
"}	c #0A0A0A",
"|	c #0F0F0F",
"1	c #0E0E0E",
"2	c #070707",
"3	c #CACACA",
"4	c #424242",
"5	c #4C4C4C",
"6	c #B9B9B9",
"7	c #A6A6A6",
"8	c #565656",
"9	c #D2D2D2",
"0	c #474747",
"a	c #A7A7A7",
"b	c #606060",
"c	c #393939",
"d	c #303030",
"e	c #E9E9E9",
"f	c #AEAEAE",
"g	c #3B3B3B",
"h	c #4F4F4F",
"i	c #202020",
"j	c #2F2F2F",
"k	c #A3A3A3",
"l	c #A2A2A2",
"m	c #5D5D5D",
"n	c #0D0D0D",
"o	c #040404",
"p	c #535353",
"q	c #909090",
"r	c #B5B5B5",
"s	c #E7E7E7",
"t	c #121212",
"u	c #181818",
"v	c #E6E6E6",
"w	c #3C3C3C",
"x	c #D7D7D7",
"                        ",
"        .+++++++++++++@ ",
"        #$%%%%%%%%%%&$* ",
"        =-          ;$* ",
"     $$$$$$$$$$$$$$>;$* ",
"     $,*')*******!$>;$* ",
" ~{{]$^{/({{{{{{_:$>;$* ",
" <$&[-}[|1[[[[2$3:$>;$* ",
" <$4 5: 67    8$3:$>;$* ",
" <$4 5: 67    8$3:$>;$* ",
" <$4 5: 67    8$3:$>;$* ",
" <$4 5: 67    8$3:$>;$* ",
" <$4 5: 67    8$3:$>;$* ",
" <$4 5: 67    8$3:$>;$* ",
" <$4 5: 67    8$3:$>;$* ",
" <$4 5: 67    8$3:$>;$* ",
" <$4 5: 6.99990$ab$cd$* ",
" <$4 5: efffffg$.h$ijjk ",
" <$4 5:       8$lm$>    ",
" <$4 5-nnnnnnno$$$$>    ",
" <$4          p$qrrs    ",
" <$t0000000000u$3       ",
" vwwwwwwwwwwwwwwx       ",
"                        "};
