/* XPM */
static char * icon_threshold_interpolate_frames_xpm[] = {
"24 24 82 1",
" 	c None",
".	c #909090",
"+	c #474747",
"@	c #7A7A7A",
"#	c #CFCFCF",
"$	c #383838",
"%	c #000000",
"&	c #212121",
"*	c #313131",
"=	c #292929",
"-	c #E0E0E0",
";	c #C6C6C6",
">	c #9F9F9F",
",	c #4B4B4B",
"'	c #ADADAD",
")	c #E9E9E9",
"!	c #686868",
"~	c #616161",
"{	c #B8B8B8",
"]	c #9B9B9B",
"^	c #ACACAC",
"/	c #666666",
"(	c #C2C2C2",
"_	c #6C6C6C",
":	c #797979",
"<	c #C7C7C7",
"[	c #AAAAAA",
"}	c #9D9D9D",
"|	c #D3D3D3",
"1	c #727272",
"2	c #848484",
"3	c #CCCCCC",
"4	c #DCDCDC",
"5	c #B4B4B4",
"6	c #A9A9A9",
"7	c #C4C4C4",
"8	c #868686",
"9	c #AEAEAE",
"0	c #A7A7A7",
"a	c #B0B0B0",
"b	c #3E3E3E",
"c	c #6B6B6B",
"d	c #BBBBBB",
"e	c #929292",
"f	c #9E9E9E",
"g	c #B3B3B3",
"h	c #8E8E8E",
"i	c #3F3F3F",
"j	c #999999",
"k	c #7E7E7E",
"l	c #434343",
"m	c #414141",
"n	c #888888",
"o	c #1B1B1B",
"p	c #333333",
"q	c #555555",
"r	c #7D7D7D",
"s	c #646464",
"t	c #CBCBCB",
"u	c #A0A0A0",
"v	c #C5C5C5",
"w	c #E4E4E4",
"x	c #1D1D1D",
"y	c #A5A5A5",
"z	c #222222",
"A	c #A3A3A3",
"B	c #A4A4A4",
"C	c #E5E5E5",
"D	c #B1B1B1",
"E	c #C3C3C3",
"F	c #9C9C9C",
"G	c #C0C0C0",
"H	c #8C8C8C",
"I	c #979797",
"J	c #EAEAEA",
"K	c #D5D5D5",
"L	c #D8D8D8",
"M	c #373737",
"N	c #8F8F8F",
"O	c #242424",
"P	c #787878",
"Q	c #E7E7E7",
"                        ",
"              .+++++++@ ",
"             #$%&**=%%+ ",
"           -;>,%' )!~%+ ",
"          {]^ /%^(_]:%+ ",
"        <[}|  /%,12|3%+ ",
"      4567    /%:8  3%+ ",
"     90a     ;b%c   3%+ ",
"   defd     ghi%'   3%+ ",
" j%%%%%%%%%%%kl%'   3%+ ",
" j%mnnnnnnno%#/%'   3%+ ",
" j%@       p%-/%qrrrs%+ ",
" j%@       p%-/%%%%%%%+ ",
" j%@       p%ft    -u{  ",
" j%@       p%v     .5   ",
" j%@      wx%-    hu    ",
" j%@      yz%-   AB     ",
" j%@    CD p%-  EF      ",
" j%@   AG  p%- aH       ",
" j%@  j    p%-I.J       ",
" j%@Kj     p%IjL        ",
" j%MN'gggggO%P          ",
" j%%%%%%%%%%%-          ",
" QEEEEEEEEEEE           "};
