/* XPM */
const char * icon_interpolation_2x2x1_xpm[] = {
"24 24 77 1",
" 	c None",
".	c #434343",
"+	c #000000",
"@	c #2F2F2F",
"#	c #424242",
"$	c #414141",
"%	c #B8B8B8",
"&	c #FFC4C4",
"*	c #FFD9D9",
"=	c #FF0000",
"-	c #FFCDCD",
";	c #949494",
">	c #E08383",
",	c #FE0606",
"'	c #CECCCC",
")	c #CCCCCC",
"!	c #8D0000",
"~	c #D50000",
"{	c #989898",
"]	c #737373",
"^	c #C71414",
"/	c #DC3737",
"(	c #FF2020",
"_	c #FF8A8A",
":	c #FFECEC",
"<	c #FFB3B3",
"[	c #FFBABA",
"}	c #FFE8E8",
"|	c #FFD4D4",
"1	c #FFCECE",
"2	c #FF7575",
"3	c #FF1616",
"4	c #FFC9C9",
"5	c #FFE3E3",
"6	c #FF1F1F",
"7	c #FF0404",
"8	c #FF0808",
"9	c #FF0202",
"0	c #FF7070",
"a	c #FF8888",
"b	c #FF3737",
"c	c #F62E2E",
"d	c #ED5E5E",
"e	c #C2C2C2",
"f	c #B6B6B6",
"g	c #626262",
"h	c #C80000",
"i	c #8F0000",
"j	c #797979",
"k	c #010101",
"l	c #4A4A4A",
"m	c #252525",
"n	c #270000",
"o	c #1C0000",
"p	c #3D3D3D",
"q	c #0D0D0D",
"r	c #F71717",
"s	c #E06969",
"t	c #818181",
"u	c #9B9B9B",
"v	c #999999",
"w	c #838383",
"x	c #3B3B3B",
"y	c #E00000",
"z	c #770000",
"A	c #6B6B6B",
"B	c #8A8A8A",
"C	c #C3C3C3",
"D	c #A2A2A2",
"E	c #ACACAC",
"F	c #121212",
"G	c #160000",
"H	c #0C0000",
"I	c #6F6F6F",
"J	c #BEBEBE",
"K	c #727272",
"L	c #DBDBDB",
"    .++++++++           ",
"    .+@###$++           ",
"    .+%    ++           ",
"    .+% &  ++           ",
"    .+%*=- ++           ",
"    .+;>,')++           ",
"    .++!~++++           ",
"    {]]^/]]]]           ",
"       (_               ",
"      :=<               ",
"      [=}               ",
" |11112341115           ",
" 678888888890           ",
" 6a        b0           ",
" 6a        b0           ",
" 6a        b0           ",
" 6a        cd        ef ",
" 6a       ghig      jk+l",
" 6a       mnom      p++q",
" rs       t++u      v++w",
"xyzA      B++C      D++E",
"FGH#      B++C      D++E",
"I++J      B++C      D++E",
"K++L      B++C      D++E"};
