/* XPM */
const char * icon_view_single_xpm[] = {
"24 24 30 1",
" 	c None",
".	c #C6C6C6",
"+	c #717171",
"@	c #555555",
"#	c #000000",
"$	c #1C1C1C",
"%	c #C6C6E3",
"&	c #00001C",
"*	c #3939E3",
"=	c #0000FF",
"-	c #3838FF",
";	c #C6C6FE",
">	c #FEFEFE",
",	c #8E8EFF",
"'	c #0000E3",
")	c #E2E2FE",
"!	c #3939FF",
"~	c #0000AA",
"{	c #0000C6",
"]	c #7171FF",
"^	c #000055",
"/	c #5555FF",
"(	c #AAAAAA",
"_	c #1C1CFF",
":	c #000071",
"<	c #8D8DFE",
"[	c #E3E3FF",
"}	c #7171E3",
"|	c #8E8E8E",
"1	c #E3E3E3",
"                        ",
"                        ",
"                        ",
"                        ",
"  .+.                   ",
"  @##$+.                ",
"  .$####$+.             ",
"  %&..+$###$+.          ",
"  *=-;>>.+$###$+.       ",
" ,'===)>>>>.+$###$+.    ",
" !~&{=]>>>>>>>.+$###$+. ",
" =^#^=/>>>>>>>>>>.+$###(",
" _:#:=/>>>>>>>>>.+$###$.",
" ]{:'=<>>>>>>.+$###$+.  ",
" [===_>>>>.+$###$+.     ",
"  }~<>>.+$###$+.        ",
"   $++$###$+.           ",
"  |$###$+.              ",
"  +#$+.                 ",
"  1.                    ",
"                        ",
"                        ",
"                        ",
"                        "};
