/* XPM */
const char * icon_window_soft_tissue_xpm[] = {
"24 24 183 2",
"  	c None",
". 	c #000000",
"+ 	c #090909",
"@ 	c #303030",
"# 	c #4D4D4D",
"$ 	c #575757",
"% 	c #535353",
"& 	c #414141",
"* 	c #323232",
"= 	c #1B1B1B",
"- 	c #040404",
"; 	c #060606",
"> 	c #5B5B5B",
", 	c #ADADAD",
"' 	c #BCBCBC",
") 	c #ACACAC",
"! 	c #9F9F9F",
"~ 	c #999999",
"{ 	c #989898",
"] 	c #979797",
"^ 	c #8B8B8B",
"/ 	c #5A5A5A",
"( 	c #0C0C0C",
"_ 	c #171717",
": 	c #939393",
"< 	c #BFBFBF",
"[ 	c #A2A2A2",
"} 	c #929292",
"| 	c #919191",
"1 	c #888888",
"2 	c #838383",
"3 	c #868686",
"4 	c #8E8E8E",
"5 	c #A5A5A5",
"6 	c #A3A3A3",
"7 	c #A1A1A1",
"8 	c #2A2A2A",
"9 	c #C6C6C6",
"0 	c #AFAFAF",
"a 	c #B4B4B4",
"b 	c #B0B0B0",
"c 	c #D7D7D7",
"d 	c #D3D3D3",
"e 	c #B9B9B9",
"f 	c #CFCFCF",
"g 	c #C9C9C9",
"h 	c #D0D0D0",
"i 	c #C7C7C7",
"j 	c #A0A0A0",
"k 	c #252525",
"l 	c #010101",
"m 	c #6A6A6A",
"n 	c #C2C2C2",
"o 	c #AEAEAE",
"p 	c #C0C0C0",
"q 	c #D9D9D9",
"r 	c #F4F4F4",
"s 	c #FBFBFB",
"t 	c #FFFFFF",
"u 	c #FAFAFA",
"v 	c #FEFEFE",
"w 	c #F8F8F8",
"x 	c #E0E0E0",
"y 	c #B2B2B2",
"z 	c #202020",
"A 	c #B1B1B1",
"B 	c #F6F6F6",
"C 	c #D1D1D1",
"D 	c #676767",
"E 	c #030303",
"F 	c #B6B6B6",
"G 	c #9D9D9D",
"H 	c #DFDFDF",
"I 	c #D5D5D5",
"J 	c #646464",
"K 	c #949494",
"L 	c #262626",
"M 	c #070707",
"N 	c #777777",
"O 	c #858585",
"P 	c #BABABA",
"Q 	c #F2F2F2",
"R 	c #898989",
"S 	c #8A8A8A",
"T 	c #CBCBCB",
"U 	c #FCFCFC",
"V 	c #E8E8E8",
"W 	c #8C8C8C",
"X 	c #686868",
"Y 	c #D6D6D6",
"Z 	c #B3B3B3",
"` 	c #A4A4A4",
" .	c #848484",
"..	c #292929",
"+.	c #9B9B9B",
"@.	c #E5E5E5",
"#.	c #666666",
"$.	c #656565",
"%.	c #454545",
"&.	c #CECECE",
"*.	c #EFEFEF",
"=.	c #5F5F5F",
"-.	c #2E2E2E",
";.	c #444444",
">.	c #585858",
",.	c #CDCDCD",
"'.	c #565656",
").	c #AAAAAA",
"!.	c #2B2B2B",
"~.	c #595959",
"{.	c #434343",
"].	c #6F6F6F",
"^.	c #7A7A7A",
"/.	c #7F7F7F",
"(.	c #4C4C4C",
"_.	c #E3E3E3",
":.	c #909090",
"<.	c #C1C1C1",
"[.	c #020202",
"}.	c #6D6D6D",
"|.	c #BEBEBE",
"1.	c #DEDEDE",
"2.	c #545454",
"3.	c #3C3C3C",
"4.	c #4F4F4F",
"5.	c #767676",
"6.	c #696969",
"7.	c #D2D2D2",
"8.	c #7B7B7B",
"9.	c #C5C5C5",
"0.	c #8F8F8F",
"a.	c #878787",
"b.	c #E4E4E4",
"c.	c #F3F3F3",
"d.	c #606060",
"e.	c #A9A9A9",
"f.	c #717171",
"g.	c #E6E6E6",
"h.	c #BDBDBD",
"i.	c #A8A8A8",
"j.	c #F0F0F0",
"k.	c #EAEAEA",
"l.	c #747474",
"m.	c #7C7C7C",
"n.	c #A6A6A6",
"o.	c #616161",
"p.	c #4E4E4E",
"q.	c #CACACA",
"r.	c #8D8D8D",
"s.	c #3B3B3B",
"t.	c #C8C8C8",
"u.	c #E2E2E2",
"v.	c #DDDDDD",
"w.	c #5C5C5C",
"x.	c #4B4B4B",
"y.	c #ECECEC",
"z.	c #FDFDFD",
"A.	c #757575",
"B.	c #E9E9E9",
"C.	c #B5B5B5",
"D.	c #969696",
"E.	c #818181",
"F.	c #F9F9F9",
"G.	c #6E6E6E",
"H.	c #BBBBBB",
"I.	c #555555",
"J.	c #B8B8B8",
"K.	c #707070",
"L.	c #787878",
"M.	c #828282",
"N.	c #DBDBDB",
"O.	c #9C9C9C",
"P.	c #F7F7F7",
"Q.	c #1A1A1A",
"R.	c #F5F5F5",
"S.	c #101010",
"T.	c #5E5E5E",
"U.	c #E1E1E1",
"V.	c #EDEDED",
"W.	c #1E1E1E",
"X.	c #373737",
"Y.	c #4A4A4A",
"Z.	c #080808",
". . . . . . . . . . . . . . . . . . . . . . . . ",
". . . . . . . + @ # $ % # & * = - . . . . . . . ",
". . . . . ; > , ' ) ! ~ { ] ] ] ^ / ( . . . . . ",
". . . . _ : < [ } | 1 2 3 4 ! 5 6 7 : 8 . . . . ",
". . . - 5 9 0 a b ' c d e d f g h i 0 j k . . . ",
". . l m n o p q r s t t u t v u w x f y ! = . . ",
". . z i A n B t t t t t t t t t t t C | { D E . ",
". . / F G H t t t t t t t t t t t t I J J K L . ",
". M N O P Q e R S T U t t t V W X 1 Y Z W `  .- ",
". ..+.[ s @.#.$./ %.&.t t *.=.-.;.>.d t x ) ,.k ",
". '.).f t | !.# ~.{.` v t o ].^./.(.D u _.:.<.>.",
"[.}.2 |.1.2.3.4.5.6.3 7.f }.| ^ 8.* {.9.Q 0.e a.",
"( 4 ^ b.c.5.D J d.m ^.] j K e.] f.%.> g.t , 9.0 ",
"!.h.i.j.k.X J l.m.^./.{ 6 h.n.o.X p.(.q.B r.).~ ",
"s.a } I q 6.0.t.1.u.H v.T ) /.>.w.x.(.F u.2 j W ",
"=.j r.F y.7 q s z.U z.z.r T 2 6.D o.A.B.,.a.C.D.",
"E.n.4 5 z.F.v t t t t t U j.n.} ^.G.0 v e ~ H.W ",
"S 0 S 1 r t t t t t t t v F.9 | $.I.J.k.E.: ^ 4 ",
"a.~ : A.H.U t t t t t z.u B e K.~.L.1.e.| [ | G.",
"%.M.{ j 3 Y v t v z.z.s U y.+.D W x N.G O.w.8 l ",
"l * K.0 G ,.P.t t z.t t t g.).< F.t 1.N Q.. . . ",
". . l Q.#.Z R.t t t t t t z.s t v g.$.[.. . . . ",
". . . . . S.T.F U.*.P.z.z.V.Y <  .@ l . . . . . ",
". . . . . . . M W...X.(.Y.L _ Z.. . . . . . . . "};
