/* XPM */
const char * icon_fuse_type_blend_xpm[] = {
"24 24 47 1",
" 	c None",
".	c #000E00",
"+	c #008100",
"@	c #006C00",
"#	c #4A0000",
"$	c #008700",
"%	c #00F400",
"&	c #007300",
"*	c #C40000",
"=	c #870000",
"-	c #00FF00",
";	c #00F200",
">	c #007700",
",	c #C30000",
"'	c #FF0000",
")	c #00F100",
"!	c #00F900",
"~	c #006200",
"{	c #C50000",
"]	c #C70000",
"^	c #12B100",
"/	c #6A3500",
"(	c #F20000",
"_	c #10BF00",
":	c #B9C700",
"<	c #F2F200",
"[	c #9F4F00",
"}	c #F40000",
"|	c #0CBF00",
"1	c #BCC700",
"2	c #FFFF00",
"3	c #F4F400",
"4	c #984C00",
"5	c #F90000",
"6	c #07BF00",
"7	c #C0C700",
"8	c #F9F900",
"9	c #8D4700",
"0	c #C7C700",
"a	c #12BF00",
"b	c #A25100",
"c	c #F10000",
"d	c #B8C700",
"e	c #F1F100",
"f	c #810000",
"g	c #074700",
"h	c #4E4700",
".                       ",
"+@                     #",
"$%&                   *=",
"$-;>                 ,'=",
"$--)>               ,''=",
"$---;&             ,'''=",
"$----%@           *''''=",
"$-----!~         {'''''=",
"$-------~       ]''''''=",
"$-------!@     {'''''''=",
"$--------%&   *''''''''=",
"$---------;> ,'''''''''=",
"$----------^/('''''''''=",
"$---------_:<[}''''''''=",
"$--------|122345'''''''=",
"$-------67222289'''''''=",
"$------60222222295'''''=",
"$-----|72222222284}''''=",
"$----_122222222223[('''=",
"$---a:222222222222<bc''=",
"$--ad22222222222222eb('=",
"$-_:2222222222222222<[}=",
"$|122222222222222222234f",
"g7222222222222222222228h"};
