/* XPM */
const char * icon_view_linked_xpm[] = {
"24 24 150 2",
"  	c None",
". 	c #CCCCCC",
"+ 	c #373737",
"@ 	c #848484",
"# 	c #DFDFDF",
"$ 	c #CFCFCF",
"% 	c #1C1C1C",
"& 	c #000000",
"* 	c #040404",
"= 	c #323232",
"- 	c #8B8B8B",
"; 	c #D6D6EA",
"> 	c #121272",
", 	c #DDDDE9",
"' 	c #A3A3A3",
") 	c #4E4E4E",
"! 	c #090909",
"~ 	c #313131",
"{ 	c #8D8D8D",
"] 	c #DBDBDB",
"^ 	c #FEFEFE",
"/ 	c #FDFDFF",
"( 	c #4B4BFB",
"_ 	c #0000FB",
": 	c #1515FF",
"< 	c #D4D4FE",
"[ 	c #ECECEC",
"} 	c #A7A7A7",
"| 	c #484848",
"1 	c #0C0C0C",
"2 	c #383838",
"3 	c #898989",
"4 	c #DADADA",
"5 	c #D7D7FF",
"6 	c #0000D6",
"7 	c #000033",
"8 	c #0000EB",
"9 	c #6060FF",
"0 	c #A1A1A1",
"a 	c #4C4C4C",
"b 	c #0B0B0B",
"c 	c #EAEAEA",
"d 	c #B4B4FF",
"e 	c #0000A5",
"f 	c #0000B4",
"g 	c #4B4BFF",
"h 	c #BEBEBE",
"i 	c #272727",
"j 	c #878787",
"k 	c #F4F4FF",
"l 	c #0D0DEA",
"m 	c #000064",
"n 	c #0000F8",
"o 	c #6E6EFF",
"p 	c #FAFAFA",
"q 	c #747474",
"r 	c #202020",
"s 	c #131313",
"t 	c #646464",
"u 	c #B1B1B1",
"v 	c #7474FF",
"w 	c #0000FF",
"x 	c #3838FF",
"y 	c #E5E5FE",
"z 	c #C8C8C8",
"A 	c #7A7A7A",
"B 	c #656565",
"C 	c #B6B6B6",
"D 	c #F7F7F7",
"E 	c #EDEDF8",
"F 	c #292947",
"G 	c #BABABC",
"H 	c #767676",
"I 	c #252525",
"J 	c #151515",
"K 	c #5E5E5E",
"L 	c #BABABA",
"M 	c #F4F4F4",
"N 	c #BFBFBF",
"O 	c #1A1A1A",
"P 	c #121212",
"Q 	c #5F5F5F",
"R 	c #B8B8B8",
"S 	c #F8F8F8",
"T 	c #9C9C9C",
"U 	c #DCDCDC",
"V 	c #060606",
"W 	c #474747",
"X 	c #989898",
"Y 	c #E7E7E7",
"Z 	c #FAFAFB",
"` 	c #2B2B38",
" .	c #7D7D7D",
"..	c #3E3E3E",
"+.	c #070707",
"@.	c #050505",
"#.	c #464646",
"$.	c #939393",
"%.	c #9898F1",
"&.	c #0404F1",
"*.	c #6B6BFF",
"=.	c #EDEDFE",
"-.	c #E4E4E4",
";.	c #8F8F8F",
">.	c #424242",
",.	c #030303",
"'.	c #414141",
").	c #9A9A9A",
"!.	c #1212F4",
"~.	c #000092",
"{.	c #7B7BFF",
"].	c #E2E2E2",
"^.	c #949494",
"/.	c #3F3F3F",
"(.	c #404040",
"_.	c #C3C3FF",
":.	c #0000C2",
"<.	c #0000B3",
"[.	c #3C3CFF",
"}.	c #E5E5E5",
"|.	c #2A2A2A",
"1.	c #E6E6FF",
"2.	c #0000D7",
"3.	c #00000B",
"4.	c #0000CC",
"5.	c #4343FF",
"6.	c #DEDEDE",
"7.	c #8C8C8C",
"8.	c #454545",
"9.	c #C4C4C4",
"0.	c #4E4EFD",
"a.	c #0000EC",
"b.	c #A9A9FE",
"c.	c #E1E1E1",
"d.	c #3A3A3A",
"e.	c #080808",
"f.	c #494949",
"g.	c #D0D0FB",
"h.	c #121299",
"i.	c #BEBEF7",
"j.	c #E1E1E2",
"k.	c #919191",
"l.	c #363636",
"m.	c #9B9B9B",
"n.	c #E9E9E9",
"o.	c #3C3C3C",
"p.	c #A0A0A0",
"q.	c #EDEDED",
"r.	c #C9C9C9",
"s.	c #FDFDFD",
"                                                ",
"                                                ",
"  . + @ #                                       ",
"  $ % & * = - #                                 ",
"  ; > , ' ) ! & ~ { ] ^                         ",
"/ ( _ : < ^ [ } | 1 & 2 3 4                     ",
"5 6 7 8 9 ^ ^ ^ ^ [ 0 a b * + @ c               ",
"d e & f g ^ ^ ^ ^ ^ ^ ^ h i & & j               ",
"k l m n o ^ ^ ^ p . q r & s t u                 ",
"  v w x y p z A r & s B C D                     ",
"  E F G H I & J K L M                           ",
"  N O & P Q R D S T c                           ",
"  U t u         R V & W X Y                     ",
"                Z `  ...+.@.#.$.c               ",
"                %.&.*.=.-.;.>.,.! '.).Y         ",
"                !.~.n {.^ ^ ^ ].^./.& +.(.T c   ",
"              _.:.& <.[.^ ^ ^ ^ ^ ^ }.X |.& & ^.",
"              1.2.3.4.5.^ ^ ^ ^ ^ 6.7...& b 8.9.",
"                0.a.w b.^ ^ c.- d.@.e.f.).[     ",
"                g.h.i.j.k.l.@.& ) m.[           ",
"                n.o.|.& e.W p.q.                ",
"                r.b 8.0 c                       ",
"                s.[                             ",
"                                                "};
