/* XPM */
const char * icon_interpolation_trilinear_xpm[] = {
"24 24 105 2",
"  	c None",
". 	c #BCBCBC",
"+ 	c #000000",
"@ 	c #969696",
"# 	c #202020",
"$ 	c #424242",
"% 	c #2A2A2A",
"& 	c #7D7D7D",
"* 	c #A3A3A3",
"= 	c #FFADAD",
"- 	c #FFE2E2",
"; 	c #FF0000",
"> 	c #656565",
", 	c #D3B6B6",
"' 	c #D1C0C0",
") 	c #838383",
"! 	c #1D0000",
"~ 	c #110000",
"{ 	c #DADADA",
"] 	c #737373",
"^ 	c #836666",
"/ 	c #7C6C6C",
"( 	c #C6C6C6",
"_ 	c #BFBFBF",
": 	c #2C2727",
"< 	c #090000",
"[ 	c #323232",
"} 	c #E8E8E8",
"| 	c #131313",
"1 	c #545454",
"2 	c #FFC2C2",
"3 	c #F05A5A",
"4 	c #E20000",
"5 	c #7A0000",
"6 	c #020202",
"7 	c #DEDEDE",
"8 	c #AEAEAE",
"9 	c #060606",
"0 	c #ABABAB",
"a 	c #E4E4E4",
"b 	c #FF5B5B",
"c 	c #FF1A1A",
"d 	c #EF0000",
"e 	c #EE4949",
"f 	c #701C1C",
"g 	c #444444",
"h 	c #EBEBEB",
"i 	c #090909",
"j 	c #696969",
"k 	c #373737",
"l 	c #2F0000",
"m 	c #A60909",
"n 	c #FF1616",
"o 	c #F85353",
"p 	c #5C0505",
"q 	c #1C0000",
"r 	c #181818",
"s 	c #282828",
"t 	c #717171",
"u 	c #E7E7E7",
"v 	c #0E0E0E",
"w 	c #0A0A0A",
"x 	c #080808",
"y 	c #4A0000",
"z 	c #9F0000",
"A 	c #DC8787",
"B 	c #FF7A7A",
"C 	c #F84A4A",
"D 	c #F30000",
"E 	c #870000",
"F 	c #0B0B0B",
"G 	c #030303",
"H 	c #959595",
"I 	c #CCCCCC",
"J 	c #5E5050",
"K 	c #590000",
"L 	c #AD0000",
"M 	c #FB0808",
"N 	c #FF1F1F",
"O 	c #FF6D6D",
"P 	c #672828",
"Q 	c #010000",
"R 	c #414141",
"S 	c #151515",
"T 	c #666666",
"U 	c #0D0D0D",
"V 	c #343434",
"W 	c #350000",
"X 	c #B20202",
"Y 	c #FF0B0B",
"Z 	c #DC0000",
"` 	c #B72929",
" .	c #FFC6C6",
"..	c #3F3F3F",
"+.	c #646464",
"@.	c #191919",
"#.	c #8A8A8A",
"$.	c #101010",
"%.	c #360000",
"&.	c #8B0000",
"*.	c #D19E9E",
"=.	c #EAE6E6",
"-.	c #E6E6E6",
";.	c #616161",
">.	c #272727",
"      . + + + + + + + @                         ",
"      . + # $ $ $ % + @                         ",
"      . + &       * + @                         ",
"      . + &   =   * + @                         ",
"      . + & - ;   * + @                         ",
"      . + > , ; ' ) + @                         ",
"      . + + ! ; ~ + + @                         ",
"      { ] ] ^ ; / ] ] (                         ",
"            - ;                                 ",
"            - ;                                 ",
"            - ;                                 ",
"            - ;                                 ",
"            - ;                                 ",
"            - ;           _                 (   ",
"            - ;         : < [           } | + 1 ",
"            - ;     2 3 4 5 6 7         8 + + 9 ",
"        0 a - ; b c d e f < g       a 0 h i + j ",
"      k l m n ; o p q r s + t     u v + k w + @ ",
"      x y z A B C D E + F + t     _ + + x G + @ ",
"h H I J K L M N O P Q R [ + t       S + T U + @ ",
"V W X Y Z `  .    ..+ +.[ + t       @.+ #.U + @ ",
"$.%.&.*.=.        ..+ +.h -.        @.+ #.} -.  ",
";.+ >.            ..+ +.            @.+ #.      ",
"+.+ ..            ..+ +.            @.+ #.      "};
