/* XPM */
const char * icon_fuse_type_overlay_xpm[] = {
"24 24 32 1",
" 	c None",
".	c #004200",
"+	c #0A0000",
"@	c #008700",
"#	c #00BC00",
"$	c #6C0000",
"%	c #810000",
"&	c #00FF00",
"*	c #00BB00",
"=	c #730000",
"-	c #F40000",
";	c #870000",
">	c #770000",
",	c #F20000",
"'	c #FF0000",
")	c #F10000",
"!	c #00BE00",
"~	c #620000",
"{	c #F90000",
"]	c #431200",
"^	c #12AE00",
"/	c #B90D00",
"(	c #10B000",
"_	c #BC0B00",
":	c #0CB300",
"<	c #C00600",
"[	c #07B800",
"}	c #C70000",
"|	c #B80E00",
"1	c #480600",
"2	c #004700",
"3	c #004000",
".                      +",
"@#                    $%",
"@&*                  =-;",
"@&&*                >,';",
"@&&&*              >)'';",
"@&&&&*            =,''';",
"@&&&&&#          $-'''';",
"@&&&&&&!        ~{''''';",
"@&&&&&&&!      ~''''''';",
"@&&&&&&&&#    ${''''''';",
"@&&&&&&&&&*  =-'''''''';",
"@&&&&&&&&&&*],''''''''';",
"@&&&&&&&&&&&^/''''''''';",
"@&&&&&&&&&&&&(_'''''''';",
"@&&&&&&&&&&&&&:<''''''';",
"@&&&&&&&&&&&&&&[}'''''';",
"@&&&&&&&&&&&&&&&[<''''';",
"@&&&&&&&&&&&&&&&&:_'''';",
"@&&&&&&&&&&&&&&&&&(/''';",
"@&&&&&&&&&&&&&&&&&&^|'';",
"@&&&&&&&&&&&&&&&&&&&^/';",
"@&&&&&&&&&&&&&&&&&&&&(_;",
"@&&&&&&&&&&&&&&&&&&&&&:1",
"2@@@@@@@@@@@@@@@@@@@@@@3"};
