/* XPM */
const char * icon_threshold_xpm[] = {
"24 24 47 1",
" 	c None",
".	c #FF0000",
"+	c #FF0500",
"@	c #000000",
"#	c #FF3500",
"$	c #FF7000",
"%	c #FFA600",
"&	c #FFE000",
"*	c #E3FD00",
"=	c #AEFF00",
"-	c #72FF00",
";	c #3CFF00",
">	c #0AFF06",
",	c #00FF36",
"'	c #00FF6C",
")	c #00FFA7",
"!	c #00FFDF",
"~	c #00E8FF",
"{	c #1F1F1F",
"]	c #9D9D9D",
"^	c #00ABFF",
"/	c #272727",
"(	c #626262",
"_	c #E0E0E0",
":	c #FFFFFF",
"<	c #333333",
"[	c #0075FF",
"}	c #181818",
"|	c #C4C4C4",
"1	c #DCDCDC",
"2	c #003DFF",
"3	c #474747",
"4	c #E4E4E4",
"5	c #070AFB",
"6	c #111111",
"7	c #B1B1B1",
"8	c #2900D6",
"9	c #313131",
"0	c #4E4E4E",
"a	c #EBEBEB",
"b	c #F3F3F3",
"c	c #42009C",
"d	c #373737",
"e	c #898989",
"f	c #1B1B1B",
"g	c #3F0064",
"h	c #27002F",
"............            ",
"++++++++++++         @@@",
"############      @@@@@@",
"$$$$$$$$$$$$    @@@@@@@@",
"%%%%%%%%%%%%@@@@@@@@@@@@",
"&&&&&&&&&&&&@@@@@@@@@@@@",
"************  @@@@@@@@@@",
"============    @@@@@@@@",
"------------       @@@@@",
";;;;;;;;;;;;         @@@",
">>>>>>>>>>>>            ",
",,,,,,,,,,,,            ",
"''''''''''''            ",
"))))))))))))            ",
"!!!!!!!!!!!!         @@@",
"~~~~~~~~~~~~      @@{]]{",
"^^^^^^^^^^^^    @/(_:::<",
"[[[[[[[[[[[[@@}/|1:::::<",
"222222222222@@34:::::::<",
"555555555555  @6<7_::::<",
"888888888888     @90ab:<",
"cccccccccccc       @@def",
"gggggggggggg         @@@",
"hhhhhhhhhhhh            "};
