/* XPM */
static char * icon_amide_xpm[] = {
"32 32 153 2",
"  	c None",
". 	c #2E2EC7",
"+ 	c #2F2EC6",
"@ 	c #302EC6",
"# 	c #302EC5",
"$ 	c #312EC5",
"% 	c #322FC5",
"& 	c #322FC4",
"* 	c #332FC4",
"= 	c #342FC3",
"- 	c #352FC2",
"; 	c #3630C2",
"> 	c #3730C1",
", 	c #332FC3",
"' 	c #342FC2",
") 	c #3630C1",
"! 	c #3730C0",
"~ 	c #3830C0",
"{ 	c #3A32BE",
"] 	c #3930C0",
"^ 	c #3930BF",
"/ 	c #3A31BF",
"( 	c #3B31BE",
"_ 	c #3830BF",
": 	c #3C31BD",
"< 	c #3D31BD",
"[ 	c #463BB7",
"} 	c #4742B7",
"| 	c #3A30BF",
"1 	c #3A31BE",
"2 	c #3D31BC",
"3 	c #3E32BC",
"4 	c #3F32BB",
"5 	c #4032BA",
"6 	c #4135BA",
"7 	c #5046B6",
"8 	c #4132B9",
"9 	c #4233B8",
"0 	c #3F34BB",
"a 	c #3E32BB",
"b 	c #4132BA",
"c 	c #4233B9",
"d 	c #4333B8",
"e 	c #4433B7",
"f 	c #4B3DB7",
"g 	c #4533B7",
"h 	c #4533B6",
"i 	c #4634B6",
"j 	c #463AB6",
"k 	c #4734B5",
"l 	c #4834B4",
"m 	c #4C3DB2",
"n 	c #4A37B5",
"o 	c #4934B4",
"p 	c #4934B3",
"q 	c #4A35B3",
"r 	c #4C36B2",
"s 	c #4333B7",
"t 	c #4A35B2",
"u 	c #4B35B2",
"v 	c #4C35B1",
"w 	c #4D35B1",
"x 	c #4634B5",
"y 	c #4A37B3",
"z 	c #4D35B0",
"A 	c #4E36B0",
"B 	c #4F36AF",
"C 	c #5038AE",
"D 	c #5036AE",
"E 	c #553CAB",
"F 	c #5136AE",
"G 	c #5136AD",
"H 	c #5237AD",
"I 	c #5337AC",
"J 	c #5437AB",
"K 	c #5537AB",
"L 	c #5537AA",
"M 	c #5638AA",
"N 	c #4E36AF",
"O 	c #5437AC",
"P 	c #5738AA",
"Q 	c #5738A9",
"R 	c #5838A9",
"S 	c #4F37B0",
"T 	c #5237AC",
"U 	c #5838A8",
"V 	c #5938A8",
"W 	c #5938A7",
"X 	c #5A39A7",
"Y 	c #5339AE",
"Z 	c #5939A7",
"` 	c #5B39A6",
" .	c #5C39A5",
"..	c #603EA5",
"+.	c #5337AD",
"@.	c #5538AB",
"#.	c #583BAB",
"$.	c #593CAA",
"%.	c #5A3CA9",
"&.	c #5B3CA9",
"*.	c #5B3CA8",
"=.	c #5C3CA8",
"-.	c #5D3DA7",
";.	c #5E3DA6",
">.	c #5D3BA5",
",.	c #5D39A5",
"'.	c #5D39A4",
").	c #5E3AA4",
"!.	c #5F3BA3",
"~.	c #583EAA",
"{.	c #5739AA",
"].	c #6140A3",
"^.	c #5F3AA3",
"/.	c #603AA2",
"(.	c #613AA2",
"_.	c #593BA8",
":.	c #613AA1",
"<.	c #623BA1",
"[.	c #633BA0",
"}.	c #643CA0",
"|.	c #6147A7",
"1.	c #5839A9",
"2.	c #5F41A6",
"3.	c #643B9F",
"4.	c #653B9F",
"5.	c #663C9E",
"6.	c #5C3FA9",
"7.	c #5B39A7",
"8.	c #5C39A6",
"9.	c #5F3BA4",
"0.	c #6741A1",
"a.	c #633BA1",
"b.	c #663B9F",
"c.	c #673C9E",
"d.	c #683C9D",
"e.	c #693C9C",
"f.	c #6A3D9B",
"g.	c #603BA2",
"h.	c #643BA0",
"i.	c #673C9D",
"j.	c #683C9C",
"k.	c #693D9B",
"l.	c #6B3D9A",
"m.	c #5E39A4",
"n.	c #5F3AA4",
"o.	c #603AA3",
"p.	c #6A459D",
"q.	c #6B3D9B",
"r.	c #6C3D9A",
"s.	c #6D3D99",
"t.	c #653DA0",
"u.	c #6C3D99",
"v.	c #6E3D98",
"                                                                ",
"                                                                ",
"                                                                ",
"            . . + @ # $ % & * = = - ; >                         ",
"            @ @ $ & & , = ' - ) > ! ~ {                         ",
"            % & * = = - ; ) > ~ ] ^ / (                         ",
"            * ' - ) ) ! ~ _ ^ / ( ( : < [                       ",
"              } > ! ~ ^ | 1 ( : < 2 3 4 5                       ",
"                    ( ( : : 6 7 4 4 5 8 8 9                     ",
"                    0 2 3 a 4   b 8 c d d e                     ",
"                    a 4 5 5     f d e g h i                     ",
"                  j 5 8 c c       h i k k l                     ",
"                  c 9 d e m       n l o p q r                   ",
"                s e e h i         q t u u v w                   ",
"                h i x k y           v w z A B C                 ",
"                k l l p q           A B B D D E                 ",
"              p o q q u               F G H I I                 ",
"              u u v v z A B B D F H H I I J K L M               ",
"              w w A N B D D G H I I O K K M P Q R               ",
"            S N B D F G H T I J K L M Q Q U V W X               ",
"            Y F G H T I J K L M Q Q U V Z X ` `  ...            ",
"            H +.I J @.#.$.$.%.&.*.=.-.;.>. .,.'.).!.            ",
"          ~.J K L M {.                  ].).^.^./.(.            ",
"          M M Q Q _.                      /.(.:.<.[.}.          ",
"        |.1.U U W 2.                      <.[.[.3.4.5.          ",
"    6.R V V X 7.` 8.,.,.9.          0.a.[.3.4.b.5.c.d.d.e.f.    ",
"    V X X ` 8.,.'.).^.^.g.          h.4.4.5.c.i.j.e.k.f.l.l.    ",
"    ` 8. .,.m.n.^.o.(.(.<.        p.5.c.i.d.e.e.f.q.l.r.s.s.    ",
"    ,.).^.^././.(.<.a.[.t.          d.e.k.f.l.l.u.s.v.v.v.v.    ",
"                                                                ",
"                                                                ",
"                                                                "};
