/* XPM */
const char * icon_window_bone_xpm[] = {
"24 24 125 2",
"  	c None",
". 	c #000000",
"+ 	c #0B0B0B",
"@ 	c #090909",
"# 	c #040404",
"$ 	c #030303",
"% 	c #010101",
"& 	c #161616",
"* 	c #474747",
"= 	c #7E7E7E",
"- 	c #B9B9B9",
"; 	c #828282",
"> 	c #A7A7A7",
", 	c #9C9C9C",
"' 	c #7A7A7A",
") 	c #4F4F4F",
"! 	c #1D1D1D",
"~ 	c #818181",
"{ 	c #EDEDED",
"] 	c #F4F4F4",
"^ 	c #EAEAEA",
"/ 	c #F9F9F9",
"( 	c #FEFEFE",
"_ 	c #FFFFFF",
": 	c #FCFCFC",
"< 	c #D9D9D9",
"[ 	c #E8E8E8",
"} 	c #F5F5F5",
"| 	c #E2E2E2",
"1 	c #3F3F3F",
"2 	c #666666",
"3 	c #7C7C7C",
"4 	c #424242",
"5 	c #959595",
"6 	c #7F7F7F",
"7 	c #8A8A8A",
"8 	c #B4B4B4",
"9 	c #F8F8F8",
"0 	c #E7E7E7",
"a 	c #8E8E8E",
"b 	c #FBFBFB",
"c 	c #A1A1A1",
"d 	c #616161",
"e 	c #717171",
"f 	c #414141",
"g 	c #0E0E0E",
"h 	c #727272",
"i 	c #181818",
"j 	c #E3E3E3",
"k 	c #EEEEEE",
"l 	c #B5B5B5",
"m 	c #A9A9A9",
"n 	c #2F2F2F",
"o 	c #5E5E5E",
"p 	c #363636",
"q 	c #A4A4A4",
"r 	c #2B2B2B",
"s 	c #A3A3A3",
"t 	c #F2F2F2",
"u 	c #151515",
"v 	c #020202",
"w 	c #CACACA",
"x 	c #F0F0F0",
"y 	c #131313",
"z 	c #050505",
"A 	c #C4C4C4",
"B 	c #949494",
"C 	c #191919",
"D 	c #D0D0D0",
"E 	c #6D6D6D",
"F 	c #ECECEC",
"G 	c #2A2A2A",
"H 	c #1C1C1C",
"I 	c #343434",
"J 	c #060606",
"K 	c #080808",
"L 	c #BABABA",
"M 	c #848484",
"N 	c #6E6E6E",
"O 	c #0C0C0C",
"P 	c #070707",
"Q 	c #DDDDDD",
"R 	c #9A9A9A",
"S 	c #323232",
"T 	c #CCCCCC",
"U 	c #7D7D7D",
"V 	c #383838",
"W 	c #292929",
"X 	c #1B1B1B",
"Y 	c #202020",
"Z 	c #242424",
"` 	c #535353",
" .	c #888888",
"..	c #E6E6E6",
"+.	c #1F1F1F",
"@.	c #212121",
"#.	c #0F0F0F",
"$.	c #CECECE",
"%.	c #696969",
"&.	c #333333",
"*.	c #111111",
"=.	c #C6C6C6",
"-.	c #575757",
";.	c #646464",
">.	c #272727",
",.	c #141414",
"'.	c #0A0A0A",
").	c #494949",
"!.	c #4E4E4E",
"~.	c #101010",
"{.	c #171717",
"].	c #393939",
"^.	c #282828",
"/.	c #707070",
"(.	c #EBEBEB",
"_.	c #1E1E1E",
":.	c #737373",
"<.	c #C5C5C5",
"[.	c #555555",
"}.	c #3B3B3B",
"|.	c #636363",
"1.	c #DFDFDF",
"2.	c #232323",
"3.	c #3A3A3A",
"4.	c #252525",
". . . . . . . . . . . . . . . . . . . . . . . . ",
". . . . . . . . . . + @ . # $ . . . . . . . . . ",
". . . . . . % & * = - - ; > , ' ) ! $ . . . . . ",
". . . . # ~ { ] ^ / ( _ : ( : < [ } | 1 . . . . ",
". . . . 2 _ _ _ _ _ _ : ^ _ _ _ _ _ _ 3 . . . . ",
". . . . 4 5 6 7 8 9 _ 0 a b _ ^ c d e f . . . . ",
". . g h i . . . $ h j k l / m n . . . . o p . . ",
". % q / r . . . . . s ( _ t u . . . . v w x y . ",
". z A B $ . . . . . C D _ E . . . . . . ) F & . ",
". . G + . . . . . . . H I g . . . . . . % p J . ",
". @ a K . . . . . . . . . . . . . . . . $ L M $ ",
". N _ O . . . . . . . . . . . . . . . . P Q R v ",
". S T K . . . . . . . . . . . . . . . . . U V . ",
". $ W . . . . . . . . . . . . . . . . . . X P . ",
". . W Y . z P P z z # v . . . . . . . . Z ` J . ",
". .  ...+.W @.H #.y + v . % . . . . . . $.L P . ",
". . %.( &.g *.J # @ *.@ % P . . . . . . =.-.. . ",
". . % ;.>.,.'.+ J #.O J . % . . . . . . P % . . ",
". . . $ C >.#.J # z # % . . . . . . . . . . . . ",
". . . . $ P + v . . . . $ v . . . # z z . . . . ",
". . . . v # >.Z @ . K V ).#.. $ !.2 G ~.. . . . ",
". . . . % {.].-.1 ^./.(.b h _.:.<.[.@.$ . . . . ",
". . . . . v @.}.4 |.1._ _ - 2.3.^.z . . . . . . ",
". . . . . . . . . % u 4.Z g . . . . . . . . . . "};
