/* XPM */
static char * ISOCONTOUR_2D_xpm[] = {
"24 26 2 1",
" 	c None",
".	c #000000",
"                        ",
"                        ",
"                        ",
"      ...               ",
"     ..  ...            ",
"     .     .......      ",
"    .           .....   ",
"    .               ..  ",
"    .                .. ",
"    .               .   ",
"    .               .   ",
"    .              ..   ",
"    .              .    ",
"    .             ..    ",
"   ..             .     ",
"  ..              .     ",
"  .              .      ",
"  .              ..     ",
"  .               .     ",
"  .   .............     ",
"  .  ..                 ",
"  .   ..                ",
"  ..   .                ",
"   .....                ",
"                        ",
"                        "};
