/* XPM */
const char * ISOCONTOUR_3D_xpm[] = {
"24 26 13 1",
" 	c None",
".	c #000000",
"+	c #240909",
"@	c #A32A2A",
"#	c #340D0D",
"$	c #220909",
"%	c #2D0C0C",
"&	c #060202",
"*	c #8D2424",
"=	c #711D1D",
"-	c #9D2828",
";	c #3C0F0F",
">	c #1A0707",
"                        ",
"                        ",
"                        ",
"      ...               ",
"     ..  ...            ",
"     .     .......      ",
"    .           .....   ",
"    .               ..  ",
"    +@@@@            .. ",
"    #@  @   @@@@@@  .   ",
"    .   @    @   @@ .   ",
"    .  @@    @    @$.   ",
"    .  @@    @    @%    ",
"    .    @   @    @#    ",
"   .&    @   @   @*     ",
"  ..=@@@@   @@@@@-;     ",
"  .   @@    @@@@ >      ",
"  .              ..     ",
"  .               .     ",
"  .   .............     ",
"  .  ..                 ",
"  .   ..                ",
"  ..   .                ",
"   .....                ",
"                        ",
"                        "};
