/* XPM */
static char * linear_layout_xpm[] = {
"64 31 3 1",
" 	c None",
".	c #000000",
"+	c #FFFFFF",
"                      ....................   ...................",
"                      ....................   ...................",
"                      ...              ...   ..               ..",
"                      ...              ...   ..               ..",
"                      ...              ...   ..               ..",
"                      ...              ...   ..               ..",
"...................   ...              ...   ..               ..",
"...................   ...              ...   ..               ..",
"..               ..   ...              ...   ..               ..",
"..               ..   ...              ...   ..               ..",
"..               ..   ...              ...   ..       .       ..",
"..    .......    ..   ...    ......    ...   ..     ......    ..",
"..    .  .  .    ..   ...    .   ..    ...   ..     .   ..    ..",
"..    .  .  .    ..   ...   .    .     ...   ..     .    .    ..",
"..    .  .  .    ..   ...   .          ...   ..      ....     ..",
"..       .       ..   ...   .          ...   ..         ..    ..",
"..       .       ..   ...   ..         ...   ..     .    .    ..",
"..       .       ..   ...    .   ..    ...   ..     ..  ..    ..",
"..     .....     ..   ...     ....     ...   ..     . ..      ..",
"..               ..   ...              ...   ..               ..",
"..               ..   ...              ...   ..               ..",
"..               ..   ...              ...   ..               ..",
"...             ...   ...              ...   ..               ..",
"...................   ...              ...   ..               ..",
"...................   ...              ...   ..               ..",
"                      ...              ...   ..               ..",
"                      ...              ...   ..               ..",
"                      ...              ...   ..               ..",
"                      ....................   ...................",
"                      ....................   ...................",
"                                                                "};
