/* XPM */
static char * MRI_xpm[] = {
"24 24 177 2",
"  	c None",
". 	c #C6C175",
"+ 	c #C6C174",
"@ 	c #C5C175",
"# 	c #C5C074",
"$ 	c #C5C174",
"% 	c #C6C075",
"& 	c #C6C074",
"* 	c #C5C075",
"= 	c #A4A061",
"- 	c #898651",
"; 	c #A19D5F",
"> 	c #BAB56E",
", 	c #98945A",
"' 	c #9D995D",
") 	c #8A8651",
"! 	c #B3AE69",
"~ 	c #A5A061",
"{ 	c #8C8852",
"] 	c #BEB970",
"^ 	c #4D4B2D",
"/ 	c #000000",
"( 	c #4C4A2D",
"_ 	c #878450",
": 	c #1E1D11",
"< 	c #3B3A23",
"[ 	c #3C3A23",
"} 	c #C4BF74",
"| 	c #535131",
"1 	c #010101",
"2 	c #0E0D08",
"3 	c #B1AC68",
"4 	c #524F30",
"5 	c #413F26",
"6 	c #595735",
"7 	c #373520",
"8 	c #444228",
"9 	c #020201",
"0 	c #1C1B10",
"a 	c #1B1B10",
"b 	c #050503",
"c 	c #B5B16B",
"d 	c #5F5D38",
"e 	c #040402",
"f 	c #18170E",
"g 	c #1D1C11",
"h 	c #BDB86F",
"i 	c #A39E60",
"j 	c #35331F",
"k 	c #2E2D1B",
"l 	c #A7A362",
"m 	c #11100A",
"n 	c #B1AD69",
"o 	c #B0AC68",
"p 	c #201F13",
"q 	c #C3BE73",
"r 	c #A29E5F",
"s 	c #989459",
"t 	c #16150D",
"u 	c #292818",
"v 	c #0C0B07",
"w 	c #090905",
"x 	c #C0BB71",
"y 	c #B3AE6A",
"z 	c #302F1C",
"A 	c #9F9B5E",
"B 	c #13120B",
"C 	c #BBB76F",
"D 	c #827F4D",
"E 	c #201F12",
"F 	c #99955A",
"G 	c #34331E",
"H 	c #15140C",
"I 	c #2D2B1A",
"J 	c #C2BD72",
"K 	c #17160D",
"L 	c #AEAA67",
"M 	c #B9B46D",
"N 	c #15150C",
"O 	c #6E6B41",
"P 	c #65623B",
"Q 	c #17170D",
"R 	c #6A673E",
"S 	c #585534",
"T 	c #212013",
"U 	c #918D55",
"V 	c #3D3B24",
"W 	c #85824F",
"X 	c #12120A",
"Y 	c #C1BC72",
"Z 	c #A9A463",
"` 	c #222114",
" .	c #595734",
"..	c #797647",
"+.	c #1B1A10",
"@.	c #3A3822",
"#.	c #777446",
"$.	c #2F2D1B",
"%.	c #7E7B4B",
"&.	c #0B0B06",
"*.	c #1F1E12",
"=.	c #47452A",
"-.	c #949057",
";.	c #908D55",
">.	c #100F09",
",.	c #3F3D25",
"'.	c #6C693F",
").	c #0E0E08",
"!.	c #A7A262",
"~.	c #817E4C",
"{.	c #302E1C",
"].	c #A39F60",
"^.	c #35341F",
"/.	c #7C7949",
"(.	c #48462A",
"_.	c #32301D",
":.	c #605D38",
"<.	c #716E43",
"[.	c #5A5735",
"}.	c #B4AF6A",
"|.	c #64613B",
"1.	c #5D5B37",
"2.	c #49482B",
"3.	c #84814E",
"4.	c #6F6C41",
"5.	c #3D3C24",
"6.	c #5C5A36",
"7.	c #16160D",
"8.	c #C0BC72",
"9.	c #5E5B37",
"0.	c #959258",
"a.	c #605E39",
"b.	c #6B683F",
"c.	c #363520",
"d.	c #969359",
"e.	c #969259",
"f.	c #1A190F",
"g.	c #4B492C",
"h.	c #7D7A49",
"i.	c #1D1D11",
"j.	c #535031",
"k.	c #7B7848",
"l.	c #252416",
"m.	c #A8A463",
"n.	c #0A0A06",
"o.	c #B7B26C",
"p.	c #393822",
"q.	c #8E8B54",
"r.	c #716E42",
"s.	c #86824F",
"t.	c #7F7C4B",
"u.	c #282718",
"v.	c #101009",
"w.	c #706D42",
"x.	c #C4BF73",
"y.	c #14140C",
"z.	c #5F5C38",
"A.	c #B7B36C",
"B.	c #8B8752",
"C.	c #6F6C42",
"D.	c #575433",
"E.	c #837F4D",
"F.	c #242315",
"G.	c #272617",
"H.	c #18180E",
"I.	c #0F0E08",
"J.	c #2E2C1B",
"K.	c #31301D",
"L.	c #565433",
"M.	c #C2BD73",
"N.	c #4A482B",
"O.	c #424027",
"P.	c #4A482C",
"Q.	c #3C3B23",
"R.	c #B8B36D",
"S.	c #5C5936",
"T.	c #34331F",
". + @ . # # # $ . . . . . . # # # # # # # # # # ",
"% & * % # # # # . . . . . . # # # # # # # # # # ",
"# # . . # # # # . . . . . . # # # # # # # # # # ",
". $ + . # # # # . . . . . . # # # # # # # # # # ",
"$ $ $ = - ; $ > - , ' - - ) ! # # ~ - - { ' ] # ",
". . . ^ / ( * _ / : < / / / [ } # | / / 1 2 3 # ",
". $ $ 4 / 5 # 6 / 7 8 9 0 a b c # d 0 e f g h # ",
"& + & i / j # k e l 3 m n o p ; # q o f r ! # # ",
"* % @ s t u h v w x y 0 . . z A # # q B C # # # ",
". @ $ D 8 E F G H . ; I . J K L # # M N J # # # ",
"& * & O P Q R S T . U V x W X Y # # Z ` # # # # ",
"% @ .  ...+.@.#.$.. %.&.*.9 =.# # # -.j # # # # ",
". @ . 8 ;.0 >._ ,.. './ / ).!.# # # ~.=.# # # # ",
"* * * {.].u ^./.^ . 6 (._.:.# # # # <.[.# # # # ",
"@ # # p }.G |.O 1.. 2.3.4.5.# # # # 6.R # # # # ",
"$ $ J 7.8.9.0.a.b.. c.d.e.f.# # # # g.h.# # # # ",
"* * ! i.* ] q j.k.. l.m.! n.o.# # # p.q.# # # # ",
"* * r.7.s.# t.u. .~.v.w.x.y.z.A.B.C.K D.E.x.# # ",
"+ $ F./ G.# H./ f g / I.. J./ ; K./ / / v x.# # ",
"* % L.` ^ M.N.` O.P.` Q.. 6.` R.S.T.` ` ^.# # # ",
"* @ * . # * * * . . . . . . # # # # # # # # # # ",
". @ $ . # $ $ $ . . . . . . # # # # # # # # # # ",
"% % * % # * * # . . . . . . # # # # # # # # # # ",
"$ @ @ . # # # # . . . . . . # # # # # # # # # # "};
