/* XPM */
const char * MRI_xpm[] = {
"24 24 168 2",
"  	c None",
". 	c #161616",
"+ 	c #212121",
"@ 	c #1C1C1C",
"# 	c #1E1E1E",
"$ 	c #323232",
"% 	c #373737",
"& 	c #232323",
"* 	c #313131",
"= 	c #222222",
"- 	c #2D2D2D",
"; 	c #292929",
"> 	c #303030",
", 	c #262626",
"' 	c #424242",
") 	c #1B1B1B",
"! 	c #171717",
"~ 	c #2A2A2A",
"{ 	c #BCBCBC",
"] 	c #CDCDCD",
"^ 	c #4D4D4D",
"/ 	c #4A4A4A",
"( 	c #333333",
"_ 	c #4F4F4F",
": 	c #979797",
"< 	c #DEDEDE",
"[ 	c #B5B5B5",
"} 	c #2E2E2E",
"| 	c #181818",
"1 	c #606060",
"2 	c #F8F8F8",
"3 	c #F9F9F9",
"4 	c #848484",
"5 	c #777777",
"6 	c #535353",
"7 	c #545454",
"8 	c #C7C7C7",
"9 	c #CBCBCB",
"0 	c #2C2C2C",
"a 	c #3B3B3B",
"b 	c #464646",
"c 	c #9B9B9B",
"d 	c #6F6F6F",
"e 	c #363636",
"f 	c #787878",
"g 	c #444444",
"h 	c #595959",
"i 	c #767676",
"j 	c #B3B3B3",
"k 	c #616161",
"l 	c #2F2F2F",
"m 	c #4B4B4B",
"n 	c #1A1A1A",
"o 	c #3E3E3E",
"p 	c #414141",
"q 	c #565656",
"r 	c #A9A9A9",
"s 	c #3C3C3C",
"t 	c #4E4E4E",
"u 	c #3A3A3A",
"v 	c #454545",
"w 	c #383838",
"x 	c #1D1D1D",
"y 	c #575757",
"z 	c #838383",
"A 	c #ABABAB",
"B 	c #C0C0C0",
"C 	c #888888",
"D 	c #555555",
"E 	c #5A5A5A",
"F 	c #8C8C8C",
"G 	c #757575",
"H 	c #A7A7A7",
"I 	c #B0B0B0",
"J 	c #C9C9C9",
"K 	c #C5C5C5",
"L 	c #B2B2B2",
"M 	c #A1A1A1",
"N 	c #B9B9B9",
"O 	c #191919",
"P 	c #242424",
"Q 	c #CECECE",
"R 	c #C6C6C6",
"S 	c #C1C1C1",
"T 	c #B1B1B1",
"U 	c #D1D1D1",
"V 	c #D0D0D0",
"W 	c #BDBDBD",
"X 	c #A8A8A8",
"Y 	c #D4D4D4",
"Z 	c #F7F7F7",
"` 	c #9A9A9A",
" .	c #6A6A6A",
"..	c #252525",
"+.	c #2B2B2B",
"@.	c #919191",
"#.	c #B8B8B8",
"$.	c #CFCFCF",
"%.	c #E1E1E1",
"&.	c #A0A0A0",
"*.	c #DDDDDD",
"=.	c #868686",
"-.	c #797979",
";.	c #7C7C7C",
">.	c #8E8E8E",
",.	c #707070",
"'.	c #DFDFDF",
").	c #BBBBBB",
"!.	c #5C5C5C",
"~.	c #9C9C9C",
"{.	c #282828",
"].	c #C4C4C4",
"^.	c #6C6C6C",
"/.	c #818181",
"(.	c #D8D8D8",
"_.	c #717171",
":.	c #8B8B8B",
"<.	c #626262",
"[.	c #5D5D5D",
"}.	c #999999",
"|.	c #898989",
"1.	c #7E7E7E",
"2.	c #969696",
"3.	c #DCDCDC",
"4.	c #9E9E9E",
"5.	c #676767",
"6.	c #A3A3A3",
"7.	c #959595",
"8.	c #7D7D7D",
"9.	c #ACACAC",
"0.	c #CACACA",
"a.	c #A2A2A2",
"b.	c #858585",
"c.	c #696969",
"d.	c #7F7F7F",
"e.	c #686868",
"f.	c #747474",
"g.	c #8D8D8D",
"h.	c #BABABA",
"i.	c #ECECEC",
"j.	c #949494",
"k.	c #828282",
"l.	c #EDEDED",
"m.	c #737373",
"n.	c #7A7A7A",
"o.	c #8F8F8F",
"p.	c #909090",
"q.	c #E5E5E5",
"r.	c #C2C2C2",
"s.	c #929292",
"t.	c #202020",
"u.	c #989898",
"v.	c #A4A4A4",
"w.	c #E3E3E3",
"x.	c #C8C8C8",
"y.	c #CCCCCC",
"z.	c #B6B6B6",
"A.	c #646464",
"B.	c #272727",
"C.	c #404040",
"D.	c #ADADAD",
"E.	c #5E5E5E",
"F.	c #7B7B7B",
"G.	c #AEAEAE",
"H.	c #9F9F9F",
"I.	c #A5A5A5",
"J.	c #434343",
"K.	c #1F1F1F",
". . . . . . . . . . . + @ . . . . . . . . . . . ",
". . . . . . . . . . # $ % . . . . . . . . . . . ",
". . . . . . . @ & * = - ; > , ' ) . . . . . . . ",
". . ! . . ) ~ { ] ^ - / ( _ : < [ } | ! ! ! . . ",
". . . . . ~ 1 2 3 4 5 6 ^ 7 8 2 9 % 0 . . . . . ",
". . . . + a b : c d e f g h i j k l m n . . . . ",
". . . . o $ m p q 6 - r 4 s t b e u v w . . . . ",
". . . x p % y 0 q z A { B r C D > E % v . . . . ",
". . . , p u F G H I J K { B L M N : b % O . . . ",
". . . P P z Q R S T U V Q W X Y Z `  .l ... . . ",
". . . , +.@.#.$.` r N %.U X X &.*.=.-.P ; . . . ",
". . . ..D ;.{ 9 X >.,.'.).!.F ~.$.M 4 % {.. . . ",
". . O + -.-.S ].z ^./.(.#._. .:.R ^.<.[.{.. . . ",
". . x & }.z |.] 1.:.2.3.J z -.>.4.5.1.5 & . . . ",
". . x l 6.4.: 7.8.|.9.0.K a.b.c.d.e.,.f.+ . . . ",
". . . +.7.}.g.>.h.i.j.k.1.#.l.` f ^.1.m.= . . . ",
". . . 0 n.o.>.F *.).~./.` p.q.r.k.s.f._.t.. . . ",
". . . & D u.Y 4.c [ Q ` v.4.&.~./.j.).e + . . . ",
". . . ) ; L w.r @.x.y.0.z.4.o.1.j.&.A.{.n . . . ",
". . . . B.C.D.>.F ` a.s./.1./.u.1.T P ; . . . . ",
". . . . | 0 E.~.}.D.z X j.1.F.G.M u ; ! . . . . ",
". . . . . n 0 s H.3.g.-.5 I.H d ~ ~ ! . . . . . ",
". . . . . . O ~ B.( / 0 ~ J...B.+ ! . . . . . . ",
". . . . . . . . @ K...& P = O | . . . . . . . . "};
