/* XPM */
static char * orthogonal_layout_xpm[] = {
"53 53 3 1",
" 	c None",
".	c #000000",
"+	c #FFFFFF",
"...................   ...............................",
"...................   ...............................",
"..               ..   ...                         ...",
"..               ..   ...                          ..",
"..               ..   ...                          ..",
"..               ..   ...            .             ..",
"..    .......    ..   ...          .....           ..",
"..    .  . ..    ..   ...          .   .           ..",
"..    .  .  .    ..   ...          .   .           ..",
"..       .  .    ..   ...          ....            ..",
"..       .       ..   ...              .           ..",
"..       .       ..   ...          .   .           ..",
"..       .       ..   ...          .. ..           ..",
"..     ....      ..   ...          ....            ..",
"..               ..   ...                          ..",
"..               ..   ...                          ..",
"..               ..   ...                         ...",
"...................   ...............................",
"...................   ...............................",
"                                                     ",
"                                                     ",
"                                                     ",
"                                                     ",
"...................                                  ",
"...................                                  ",
"..               ..                                  ",
"..               ..                                  ",
"..               ..                                  ",
"..               ..                                  ",
"..               ..                                  ",
"..               ..                                  ",
"..               ..                                  ",
"..               ..                                  ",
"..               ..                                  ",
"..     .....     ..                                  ",
"..    .    .     ..                                  ",
"..    .    .     ..                                  ",
"..    .          ..                                  ",
"..    .          ..                                  ",
"..    .          ..                                  ",
"..    ..   ..    ..                                  ",
"..      ...      ..                                  ",
"..               ..                                  ",
"..               ..                                  ",
"..               ..                                  ",
"..               ..                                  ",
"..               ..                                  ",
"..               ..                                  ",
"..               ..                                  ",
"..               ..                                  ",
"..               ..                                  ",
"...................                                  ",
"...................                                  "};
