/* XPM */
static char * OTHER_xpm[] = {
"24 24 190 2",
"  	c None",
". 	c #C67EC2",
"+ 	c #C57FC2",
"@ 	c #C57EC2",
"# 	c #C67FC2",
"$ 	c #C57EC1",
"% 	c #C67FC1",
"& 	c #C67EC1",
"* 	c #C57FC1",
"= 	c #B674B2",
"- 	c #C47DC0",
"; 	c #945F91",
"> 	c #261825",
", 	c #C27CBE",
"' 	c #BF7ABB",
") 	c #72496F",
"! 	c #B272AE",
"~ 	c #BA77B6",
"{ 	c #754B73",
"] 	c #060406",
"^ 	c #6B4569",
"/ 	c #000000",
"( 	c #553754",
"_ 	c #C47EC0",
": 	c #422A41",
"< 	c #905C8D",
"[ 	c #271826",
"} 	c #1A101A",
"| 	c #130C13",
"1 	c #1B111A",
"2 	c #C37DBF",
"3 	c #452C44",
"4 	c #40293E",
"5 	c #A66AA2",
"6 	c #20141F",
"7 	c #B574B1",
"8 	c #231622",
"9 	c #BC79B9",
"0 	c #BE79BA",
"a 	c #4B304A",
"b 	c #422A40",
"c 	c #B876B5",
"d 	c #B775B3",
"e 	c #BF7BBB",
"f 	c #7C507A",
"g 	c #674265",
"h 	c #4D314C",
"i 	c #AC6EA8",
"j 	c #976194",
"k 	c #3D273C",
"l 	c #8F5C8D",
"m 	c #BD79B9",
"n 	c #382336",
"o 	c #2C1C2B",
"p 	c #82537F",
"q 	c #492F48",
"r 	c #281927",
"s 	c #492E47",
"t 	c #885785",
"u 	c #291A28",
"v 	c #B172AE",
"w 	c #5B3A59",
"x 	c #644062",
"y 	c #9F669C",
"z 	c #AA6DA7",
"A 	c #BE7ABA",
"B 	c #0D080D",
"C 	c #40293F",
"D 	c #A0679D",
"E 	c #030102",
"F 	c #AB6EA8",
"G 	c #7F527D",
"H 	c #432B42",
"I 	c #BA77B7",
"J 	c #6E466C",
"K 	c #9B6398",
"L 	c #070407",
"M 	c #B977B5",
"N 	c #020101",
"O 	c #543653",
"P 	c #2D1D2C",
"Q 	c #634061",
"R 	c #3B2539",
"S 	c #4F334E",
"T 	c #5E3C5C",
"U 	c #241723",
"V 	c #010101",
"W 	c #613E5F",
"X 	c #3B263A",
"Y 	c #80527D",
"Z 	c #A86BA4",
"` 	c #AD6FAA",
" .	c #1C121B",
"..	c #C27DBF",
"+.	c #3A2539",
"@.	c #A66AA3",
"#.	c #AE70AB",
"$.	c #794E77",
"%.	c #271926",
"&.	c #694367",
"*.	c #412A40",
"=.	c #623F60",
"-.	c #A368A0",
";.	c #845481",
">.	c #865684",
",.	c #A2689F",
"'.	c #603D5E",
").	c #2F1E2E",
"!.	c #462D45",
"~.	c #6B4469",
"{.	c #6C456A",
"].	c #B071AD",
"^.	c #784D75",
"/.	c #915D8E",
"(.	c #986194",
"_.	c #70476D",
":.	c #090508",
"<.	c #120B11",
"[.	c #251824",
"}.	c #603E5E",
"|.	c #9C6499",
"1.	c #8A5988",
"2.	c #7A4E77",
"3.	c #4D314B",
"4.	c #573755",
"5.	c #B373AF",
"6.	c #3F283E",
"7.	c #342133",
"8.	c #AA6DA6",
"9.	c #7F517C",
"0.	c #875785",
"a.	c #472D45",
"b.	c #AF70AB",
"c.	c #945E91",
"d.	c #4C314B",
"e.	c #583856",
"f.	c #744A72",
"g.	c #935E90",
"h.	c #4C304A",
"i.	c #B070AC",
"j.	c #523551",
"k.	c #322031",
"l.	c #C17CBD",
"m.	c #895887",
"n.	c #50334E",
"o.	c #4E324C",
"p.	c #BC79B8",
"q.	c #A3689F",
"r.	c #9A6296",
"s.	c #9E659B",
"t.	c #AD6FA9",
"u.	c #583857",
"v.	c #3D273B",
"w.	c #945E90",
"x.	c #664164",
"y.	c #835480",
"z.	c #71486E",
"A.	c #7B4E78",
"B.	c #221621",
"C.	c #4F324D",
"D.	c #251825",
"E.	c #BB78B7",
"F.	c #150D14",
"G.	c #7E517C",
"H.	c #221521",
"I.	c #774C75",
"J.	c #684265",
"K.	c #180F18",
"L.	c #B171AD",
"M.	c #030203",
"N.	c #090609",
"O.	c #B574B2",
"P.	c #684266",
"Q.	c #7B4F79",
"R.	c #020102",
"S.	c #B976B5",
"T.	c #040204",
"U.	c #050305",
"V.	c #986195",
"W.	c #180F17",
"X.	c #5D3B5B",
"Y.	c #A1679E",
"Z.	c #A86CA5",
"`.	c #6A4468",
" +	c #392438",
".+	c #654163",
"++	c #372336",
"@+	c #352234",
"#+	c #A86CA4",
"$+	c #A56AA2",
". + @ # @ @ # # # # # $ $ $ $ $ $ $ $ $ $ # # # ",
"# # # # % + # # # # # $ $ $ $ $ $ $ $ $ $ # # # ",
"# # # # & * # # # # # = - $ $ $ $ $ $ $ $ # # # ",
"& $ $ & $ $ # # # # ; > , $ $ $ $ $ $ $ $ # # # ",
". . ' ) ! . $ ~ . . { ] . $ $ $ $ @ $ $ $ # # # ",
"* % ^ / ( $ _ : # # < [ $ $ $ $ $ $ $ $ $ # # # ",
". _ } | 1 $ 2 3 # # # 4 $ $ $ $ $ $ $ $ $ # # # ",
"+ 5 6 7 8 9 0 a # # # b c _ $ $ ' d $ $ $ # e # ",
"* f g + h i j k l m 2 n o p $ _ q r ~ ~ s t u v ",
"& w j & x y : / / z A B / C $ D E / t F / 1 / G ",
"* H I + J K k L B 7 M N O P $ Q R S T ! U V b W ",
"+ X % # J K Y g Z 2 `  ...b $ +.@.#.s $ $.%.F &.",
"@ *.@ . =.-.;.>.# # ,.'.$ *.$ ).$ ' !.$ ~.{.# # ",
". *.# # ( ].^./.# # (._.$ k A :.<.[.H $ }.|.# # ",
"* H * * : ' {.y # # 1.2.- C 7 V / / 3.$ 4.5.# # ",
"& 6.& $ 7.$ W 8.# # 9.0.0 a.b.*.2.~.c.$ d.9 # # ",
"$ X $ I 7.* e.= $ ..f.g.= h.i.j.$ $ 2 $ 3 - # # ",
"# k.l.m.n.& o.p.q.r.g s.t.u.M v.$ z w.$ H # # # ",
". : x.u y.@ o.z.1 A.B.x C.D.E.F.G.H.I.J.K.h.L.# ",
". {.M.N.O.@ P.M.] Q./ k K.R.S.n T.U.V.r / / q.# ",
"+ F W.X.% * Y.W.J Z.4 `.O  +_ t F..+_ &.++@+! # ",
"& $ #+m $ $ $ Z - # # $ $ $ $ - $+..$ $ $ # # # ",
"# . # # @ + # # # # # $ $ $ $ $ $ $ $ $ $ # # # ",
"% % % # * % # # # # # $ $ $ $ $ $ $ $ $ $ # # # "};
