/* XPM */
const char * PET_xpm[] = {
"24 24 150 2",
"  	c None",
". 	c #74BCB3",
"+ 	c #74BBB2",
"@ 	c #73BBB2",
"# 	c #73BCB2",
"$ 	c #74BCB2",
"% 	c #73BCB3",
"& 	c #46736D",
"* 	c #000000",
"= 	c #131F1E",
"- 	c #5F9B94",
"; 	c #33534F",
"> 	c #030505",
", 	c #121E1D",
"' 	c #47736E",
") 	c #5F9B93",
"! 	c #0E1716",
"~ 	c #1E302E",
"{ 	c #3D645F",
"] 	c #020303",
"^ 	c #030504",
"/ 	c #050808",
"( 	c #203532",
"_ 	c #2D4945",
": 	c #010202",
"< 	c #040606",
"[ 	c #497771",
"} 	c #4E7F79",
"| 	c #040707",
"1 	c #142120",
"2 	c #6FB4AB",
"3 	c #233A37",
"4 	c #3B615C",
"5 	c #64A29A",
"6 	c #4B7B75",
"7 	c #060A09",
"8 	c #72B9B0",
"9 	c #6DB1A8",
"0 	c #182725",
"a 	c #48756F",
"b 	c #63A199",
"c 	c #548982",
"d 	c #3E6560",
"e 	c #2C4844",
"f 	c #46726C",
"g 	c #1D2F2C",
"h 	c #50837C",
"i 	c #050807",
"j 	c #69ABA2",
"k 	c #71B8AF",
"l 	c #111B1A",
"m 	c #5E9991",
"n 	c #6BAFA6",
"o 	c #6AADA5",
"p 	c #0F1817",
"q 	c #2E4B47",
"r 	c #406762",
"s 	c #0C1312",
"t 	c #6AADA4",
"u 	c #487570",
"v 	c #263E3B",
"w 	c #73BAB1",
"x 	c #111C1A",
"y 	c #6DB1A9",
"z 	c #6EB2A9",
"A 	c #6FB5AC",
"B 	c #0B1211",
"C 	c #67A79F",
"D 	c #355753",
"E 	c #3B605C",
"F 	c #0E1817",
"G 	c #1C2E2C",
"H 	c #51847E",
"I 	c #69AAA2",
"J 	c #0D1514",
"K 	c #416A65",
"L 	c #0B1312",
"M 	c #68A79F",
"N 	c #69ABA3",
"O 	c #335450",
"P 	c #152321",
"Q 	c #497671",
"R 	c #5C978F",
"S 	c #243B38",
"T 	c #629F97",
"U 	c #5E9992",
"V 	c #121D1C",
"W 	c #426C67",
"X 	c #69ADA4",
"Y 	c #060B0A",
"Z 	c #528780",
"` 	c #4F817A",
" .	c #2D4A46",
"..	c #5D9891",
"+.	c #548983",
"@.	c #538680",
"#.	c #5E9A92",
"$.	c #5B948D",
"%.	c #32514D",
"&.	c #050909",
"*.	c #609C94",
"=.	c #46716C",
"-.	c #28423F",
";.	c #070B0B",
">.	c #172624",
",.	c #4E7E78",
"'.	c #446E69",
").	c #2A4441",
"!.	c #619F97",
"~.	c #63A29A",
"{.	c #395D59",
"].	c #355652",
"^.	c #74BBB3",
"/.	c #46706B",
"(.	c #273F3C",
"_.	c #6CB0A8",
":.	c #70B6AD",
"<.	c #385B57",
"[.	c #70B7AE",
"}.	c #51847D",
"|.	c #31504C",
"1.	c #2D4845",
"2.	c #395C58",
"3.	c #345450",
"4.	c #2A4542",
"5.	c #416B65",
"6.	c #365853",
"7.	c #213533",
"8.	c #4D7E78",
"9.	c #273F3D",
"0.	c #365854",
"a.	c #68A8A0",
"b.	c #1B2D2B",
"c.	c #233936",
"d.	c #6EB3AB",
"e.	c #111C1B",
"f.	c #4C7B75",
"g.	c #71B7AE",
"h.	c #2B4542",
"i.	c #090F0E",
"j.	c #162422",
"k.	c #538781",
"l.	c #000101",
"m.	c #3A5F5A",
"n.	c #29433F",
"o.	c #0A1010",
"p.	c #192826",
"q.	c #487670",
"r.	c #446F69",
"s.	c #73BBB3",
". + + @ . . . . @ @ @ @ @ @ @ @ . . . . . . . . ",
"+ # + @ . $ . . @ @ @ @ @ @ @ @ . . . . . . . . ",
". . . % . . . . @ @ @ @ @ @ @ @ . . . . . . . . ",
". $ . @ . . . . @ @ @ @ @ @ @ @ . . . . . . . . ",
"+ & * * * = - . ; * * * > , ' ) * * * * ! ~ . . ",
". { ] ^ / ^ ( . _ : < / / : [ } ] / : | < 1 . . ",
". 2 3 4 5 6 7 8 9 0 a b b 1 c d e 5 ! c f g . . ",
". . ~ h . 8 i j k l m n o p m q r 2 s t u v . . ",
". w x m . y | z A B C D E F t G H I J A K q . . ",
". 2 L M . h p @ N < O P Q R 8 S T U V . Q W . . ",
"# X Y Z ` 1  .% ..* * * +.@ @ @ . @.~ . . . . . ",
"% #.* * * / $.. h p %.&.*.@ @ @ . =.-.. . . . . ",
"% @.;.>.g ,.. . '.).A J !.~.@ @ . {.].. . . . . ",
"^./.(._.:.. . ^.<.D [.}.W |.@ @ . 1.K . . . . . ",
". 2.3.% . . . . 4.5.@ @ 6.{.@ @ . 7.8.. . . . . ",
"t 9.0.I . . . a.b.K b b c.& @ d.5 e.f.g.. . . . ",
"h.] ^ i.t ^.. j.: < / / : k.@ } / l.| m.. . . . ",
"n./ * o.A . . p.F * * * * #.@ q.B * * r.. . . . ",
"+ + + @ . . . . @ @ @ @ @ @ @ @ . . . . . . . . ",
". . . @ . . . . @ @ @ @ @ @ @ @ . . . . . . . . ",
". + $ @ . . . . @ @ @ @ @ @ @ @ . . . . . . . . ",
"s.s.s.@ . . . . @ @ @ @ @ @ @ @ . . . . . . . . ",
"$ . . @ . . . . @ @ @ @ @ @ @ @ . . . . . . . . ",
". ^.^.@ . . . . @ @ @ @ @ @ @ @ . . . . . . . . "};
