/* XPM */
static char * PET_xpm[] = {
"24 24 374 2",
"  	c None",
". 	c #000000",
"+ 	c #0D000D",
"@ 	c #2A022B",
"# 	c #420142",
"$ 	c #5E0059",
"% 	c #4F014E",
"& 	c #2E012F",
"* 	c #120012",
"= 	c #050005",
"- 	c #010001",
"; 	c #140013",
"> 	c #3E2E60",
", 	c #8E905E",
"' 	c #B0A145",
") 	c #95B15E",
"! 	c #5F9193",
"~ 	c #89A069",
"{ 	c #B08446",
"] 	c #997D59",
"^ 	c #6B7070",
"/ 	c #3C1C5B",
"( 	c #090009",
"_ 	c #2B0A39",
": 	c #7A7B6D",
"< 	c #DF7B1B",
"[ 	c #FF3100",
"} 	c #FF9E01",
"| 	c #FF4E00",
"1 	c #FF3200",
"2 	c #FF1D00",
"3 	c #FF5900",
"4 	c #FF1B00",
"5 	c #FF2801",
"6 	c #C98A2E",
"7 	c #50406E",
"8 	c #080008",
"9 	c #210020",
"0 	c #739278",
"a 	c #FE4701",
"b 	c #FF0D00",
"c 	c #F59B0B",
"d 	c #D8F629",
"e 	c #FF2B00",
"f 	c #C5EC2F",
"g 	c #C5D42D",
"h 	c #FF3F00",
"i 	c #FF0F00",
"j 	c #B5903F",
"k 	c #3B0E4F",
"l 	c #4A317A",
"m 	c #D6C922",
"n 	c #F3BC0C",
"o 	c #AAC63E",
"p 	c #56CB87",
"q 	c #38C89A",
"r 	c #ECCE12",
"s 	c #FF9F00",
"t 	c #F98006",
"u 	c #60DD76",
"v 	c #11ACC2",
"w 	c #6DDB6F",
"x 	c #F08C0D",
"y 	c #FE2301",
"z 	c #787770",
"A 	c #190018",
"B 	c #360035",
"C 	c #72A57D",
"D 	c #FFAD00",
"E 	c #AFF13C",
"F 	c #0EB3BE",
"G 	c #026FF1",
"H 	c #1268E4",
"I 	c #43C19A",
"J 	c #6FE36E",
"K 	c #32BDA6",
"L 	c #0186E4",
"M 	c #0083E7",
"N 	c #14BCB4",
"O 	c #BAE735",
"P 	c #FF2C00",
"Q 	c #B19B41",
"R 	c #3D084C",
"S 	c #020002",
"T 	c #030003",
"U 	c #4A024A",
"V 	c #88C368",
"W 	c #FF9600",
"X 	c #F6900A",
"Y 	c #C5C82C",
"Z 	c #28B9AD",
"` 	c #1E82CD",
" .	c #0674EA",
"..	c #0080E9",
"+.	c #0276ED",
"@.	c #0B88DB",
"#.	c #26C6A4",
"$.	c #CBD92A",
"%.	c #FBAE06",
"&.	c #FFBC00",
"*.	c #E2CB17",
"=.	c #4B2C81",
"-.	c #150015",
";.	c #3B013A",
">.	c #89B867",
",.	c #FF1F00",
"'.	c #FF0C00",
").	c #FF7E00",
"!.	c #F0CE10",
"~.	c #F26D0D",
"{.	c #76C26B",
"].	c #0469F4",
"^.	c #60BC80",
"/.	c #E77913",
"(.	c #E5C719",
"_.	c #FEA203",
":.	c #FF1600",
"<.	c #FF2900",
"[.	c #F2980D",
"}.	c #4B498B",
"|.	c #220022",
"1.	c #3E1862",
"2.	c #BDB636",
"3.	c #FF1100",
"4.	c #FF7B00",
"5.	c #FF2400",
"6.	c #B0BE3B",
"7.	c #0277EC",
"8.	c #BB9E32",
"9.	c #FF4900",
"0.	c #FF2A00",
"a.	c #FF2300",
"b.	c #FA9E07",
"c.	c #547792",
"d.	c #270027",
"e.	c #070007",
"f.	c #647C7F",
"g.	c #FBAC04",
"h.	c #FEBE02",
"i.	c #FF1E00",
"j.	c #CCD927",
"k.	c #3FD091",
"l.	c #046BF3",
"m.	c #5FD07E",
"n.	c #F9AB08",
"o.	c #FF1500",
"p.	c #FF5D00",
"q.	c #FF4400",
"r.	c #809E72",
"s.	c #290028",
"t.	c #0F000F",
"u.	c #1D001B",
"v.	c #8DB966",
"w.	c #FFE500",
"x.	c #FFD700",
"y.	c #FCF609",
"z.	c #FF5000",
"A.	c #FF5C01",
"B.	c #9CF94B",
"C.	c #9FED46",
"D.	c #6FDD70",
"E.	c #B9E736",
"F.	c #D2FC31",
"G.	c #FE4E02",
"H.	c #FF1A00",
"I.	c #FF9B00",
"J.	c #FFC600",
"K.	c #FF7800",
"L.	c #AEC042",
"M.	c #390A4B",
"N.	c #110011",
"O.	c #330234",
"P.	c #88D167",
"Q.	c #FFE800",
"R.	c #F9F00B",
"S.	c #FBE307",
"T.	c #FF8A00",
"U.	c #DCDE24",
"V.	c #F0B211",
"W.	c #FF6100",
"X.	c #FFCE00",
"Y.	c #FF3400",
"Z.	c #FD9504",
"`.	c #FCB907",
" +	c #FF5F00",
".+	c #ECA910",
"++	c #433D76",
"@+	c #0A000A",
"#+	c #3D1465",
"$+	c #91ED5C",
"%+	c #FCF60A",
"&+	c #FDDE05",
"*+	c #FCE105",
"=+	c #BFF733",
"-+	c #A6FA45",
";+	c #FF5B01",
">+	c #F86406",
",+	c #A9EA43",
"'+	c #FA5904",
")+	c #FF2600",
"!+	c #E3F724",
"~+	c #F9F00C",
"{+	c #FF8800",
"]+	c #FF7400",
"^+	c #FAAC07",
"/+	c #547087",
"(+	c #3B267D",
"_+	c #91F555",
":+	c #F1F116",
"<+	c #FFA900",
"[+	c #F8D309",
"}+	c #79EE61",
"|+	c #68E76D",
"1+	c #BAD736",
"2+	c #54A696",
"3+	c #4841BD",
"4+	c #57A992",
"5+	c #C2C92D",
"6+	c #97F34F",
"7+	c #A0F349",
"8+	c #FD8D03",
"9+	c #FF3300",
"0+	c #FF5200",
"a+	c #EFF216",
"b+	c #506F8F",
"c+	c #3E2581",
"d+	c #81F061",
"e+	c #DCFE2E",
"f+	c #9DF54B",
"g+	c #34BCA5",
"h+	c #2C6AC7",
"i+	c #4742BB",
"j+	c #5734AF",
"k+	c #79179E",
"l+	c #6423AF",
"m+	c #3640D3",
"n+	c #2B58D1",
"o+	c #2B5ECC",
"p+	c #1486D1",
"q+	c #96EC52",
"r+	c #FEC802",
"s+	c #FFD300",
"t+	c #DBFD2A",
"u+	c #4A6198",
"v+	c #190019",
"w+	c #480C60",
"x+	c #52D884",
"y+	c #A1FF4F",
"z+	c #5EEB70",
"A+	c #156CDC",
"B+	c #860987",
"C+	c #830072",
"D+	c #8C0580",
"E+	c #403FC8",
"F+	c #0C8AD9",
"G+	c #0999D2",
"H+	c #4E31C0",
"I+	c #970486",
"J+	c #6622AD",
"K+	c #1992C9",
"L+	c #84EB5E",
"M+	c #E0F61D",
"N+	c #DCFC26",
"O+	c #475A97",
"P+	c #230023",
"Q+	c #30002E",
"R+	c #4085A1",
"S+	c #93FD52",
"T+	c #4BDD82",
"U+	c #2F4AD5",
"V+	c #8D0581",
"W+	c #71189B",
"X+	c #3470BD",
"Y+	c #59CA87",
"Z+	c #DDD61A",
"`+	c #BADF35",
" @	c #4095AB",
".@	c #443FC2",
"+@	c #6F1CA6",
"@@	c #4A34C3",
"#@	c #0595D7",
"$@	c #77F361",
"%@	c #A4F84E",
"&@	c #4A2E83",
"*@	c #290029",
"=@	c #060006",
"-@	c #411B6D",
";@	c #3BCC8E",
">@	c #35D78C",
",@	c #0E71E3",
"'@	c #4A33C4",
")@	c #2298C0",
"!@	c #D4D224",
"~@	c #FE6F01",
"{@	c #FF3900",
"]@	c #F88007",
"^@	c #45CA93",
"/@	c #2A4DD9",
"(@	c #334FCC",
"_@	c #4DDC82",
":@	c #C3FF3C",
"<@	c #5CB689",
"[@	c #410344",
"}@	c #200020",
"|@	c #42308A",
"1@	c #2BC69C",
"2@	c #1DC2AA",
"3@	c #0D60EF",
"4@	c #35BDA5",
"5@	c #F8C108",
"6@	c #FF2F00",
"7@	c #FF2800",
"8@	c #FE7F01",
"9@	c #51D389",
"0@	c #145EE8",
"a@	c #089CCF",
"b@	c #62EC6C",
"c@	c #7BDC6E",
"d@	c #482778",
"e@	c #160016",
"f@	c #120011",
"g@	c #3D3BA4",
"h@	c #07BCBD",
"i@	c #0193DC",
"j@	c #0593D8",
"k@	c #BBEA35",
"l@	c #F8BC0A",
"m@	c #3CD88D",
"n@	c #1AC2AB",
"o@	c #38DC87",
"p@	c #3ED984",
"q@	c #423A91",
"r@	c #1B001B",
"s@	c #2A022D",
"t@	c #2876B8",
"u@	c #04BAC0",
"v@	c #02A8CC",
"w@	c #58E078",
"x@	c #EFB510",
"y@	c #D9DE20",
"z@	c #2CD694",
"A@	c #45E27A",
"B@	c #23BBA8",
"C@	c #3F3F9C",
"D@	c #1B001A",
"E@	c #1D001D",
"F@	c #040004",
"G@	c #340337",
"H@	c #2A62BD",
"I@	c #3EDD86",
"J@	c #78F55E",
"K@	c #BBFE3E",
"L@	c #EADA15",
"M@	c #FCC904",
"N@	c #D5FC29",
"O@	c #6EF162",
"P@	c #2194BA",
"Q@	c #45166D",
"R@	c #320234",
"S@	c #454492",
"T@	c #65C082",
"U@	c #6ECE7C",
"V@	c #4A60A0",
"W@	c #61B388",
"X@	c #9EE754",
"Y@	c #4E7B94",
"Z@	c #3D0B51",
"`@	c #170017",
" #	c #250025",
".#	c #37033A",
"+#	c #35053D",
"@#	c #35043C",
"##	c #3E0B52",
"$#	c #140014",
". . . . . . . . + @ # $ % & * = - . . . . . . . ",
". . . . . . ; > , ' ) ! ~ { ] ^ / ( . . . . . . ",
". . . . . _ : < [ } | 1 2 3 4 5 6 7 8 . . . . . ",
". . . . 9 0 a b c d 1 b e f g h i j k - . . . . ",
". . . ( l m n o p q r s t u v w x y z A . . . . ",
". . . B C D E F G H I J K L M N O P Q R S . . . ",
". . T U V W X Y Z `  ...+.@.#.$.%.&.*.=.-.. . . ",
". . . ;.>.,.'.).!.~.{.].^./.(._.:.<.[.}.|.S . . ",
". . . 1.2.3.i 4.5.,.6.7.8.'.:.9.0.a.b.c.d.e.. . ",
". . ( f.g.).h.h i.j.k.l.m.n.o.:.9.p.q.r.s.t.. . ",
". . u.v.w.x.y.z.A.B.C.D.E.F.G.H.I.J.K.L.M.N.. . ",
". . O.P.Q.R.S.T.U.V.W.X.Y.Z.`.q.D x. +.+++@+. . ",
". . #+$+%+&+*+=+-+;+>+,+'+)+!+~+{+]+5.^+/+@+. . ",
". . (+_+:+<+[+}+|+1+2+3+4+5+6+7+8+9+0+a+b++ . . ",
". - c+d+e+f+g+h+i+j+k+l+m+n+o+p+q+r+s+t+u+v+. . ",
". - w+x+y+z+A+B+C+D+E+F+G+H+I+J+K+L+M+N+O+P+. . ",
". S Q+R+S+T+U+V+W+X+Y+Z+`+ @.@+@@@#@$@%@&@*@. . ",
". . =@-@;@>@,@'@)@!@~@]+{@]@^@/@(@_@:@<@[@}@. . ",
". . . @+|@1@2@3@4@5@6@7@'.8@9@0@a@b@c@d@e@=@. . ",
". . . . f@g@h@i@j@k@1 '.i l@m@n@o@p@q@r@N.. . . ",
". . . - = s@t@u@v@w@x@7@7@y@z@A@B@C@D@E@F@. . . ",
". . . . e.S G@H@I@J@K@L@M@N@O@P@Q@N.e@@+. . . . ",
". . . . . = e.R@S@T@U@V@W@X@Y@Z@8 `@@+. . . . . ",
". . . . . . =@r@ #.#+#r@@###9 * $#T . . . . . . "};
