/* XPM */
const char * ROI_xpm[] = {
"24 24 196 2",
"  	c None",
". 	c #73BC79",
"+ 	c #74BB78",
"@ 	c #74BC79",
"# 	c #74BB79",
"$ 	c #84AB7B",
"% 	c #8CA37C",
"& 	c #7AB479",
"* 	c #76B979",
"= 	c #A38C80",
"- 	c #BB7483",
"; 	c #BC7384",
"> 	c #B77883",
", 	c #89A67C",
"' 	c #73BB79",
") 	c #73BC78",
"! 	c #99967E",
"~ 	c #BB7384",
"{ 	c #7DB27A",
"] 	c #73BB78",
"^ 	c #79B679",
"/ 	c #BB7383",
"( 	c #9B937E",
"_ 	c #B27D82",
": 	c #5B945F",
"< 	c #545546",
"[ 	c #69414A",
"} 	c #724650",
"| 	c #AF6C7B",
"1 	c #BC7484",
"2 	c #B97583",
"3 	c #5F885D",
"4 	c #2C472E",
"5 	c #2A452C",
"6 	c #64A268",
"7 	c #416943",
"8 	c #47734A",
"9 	c #518354",
"0 	c #73BA78",
"a 	c #375A3A",
"b 	c #020403",
"c 	c #090606",
"d 	c #0F090A",
"e 	c #090506",
"f 	c #3E262B",
"g 	c #BC7383",
"h 	c #7E4E59",
"i 	c #060605",
"j 	c #142115",
"k 	c #121D12",
"l 	c #0A100A",
"m 	c #69AB6E",
"n 	c #4C7B4F",
"o 	c #050905",
"p 	c #090F09",
"q 	c #1C2E1E",
"r 	c #71B776",
"s 	c #172619",
"t 	c #7D4D58",
"u 	c #AF6B7A",
"v 	c #8D5763",
"w 	c #120B0C",
"x 	c #AC6A78",
"y 	c #110B0C",
"z 	c #406642",
"A 	c #72B977",
"B 	c #6FB574",
"C 	c #152316",
"D 	c #446F47",
"E 	c #6DB172",
"F 	c #385C3B",
"G 	c #2B462D",
"H 	c #6BAF70",
"I 	c #6EB273",
"J 	c #70B575",
"K 	c #0D130D",
"L 	c #A26472",
"M 	c #BB7484",
"N 	c #85525D",
"O 	c #1F1316",
"P 	c #663E47",
"Q 	c #2C2322",
"R 	c #75B778",
"S 	c #395C3B",
"T 	c #315033",
"U 	c #29432B",
"V 	c #67A86C",
"W 	c #080706",
"X 	c #6C434C",
"Y 	c #684049",
"Z 	c #170E10",
"` 	c #623C44",
" .	c #28181C",
"..	c #6A6356",
"+.	c #3D6440",
"@.	c #2F4836",
"#.	c #73B380",
"$.	c #172518",
"%.	c #528656",
"&.	c #568C5A",
"*.	c #010302",
"=.	c #060705",
"-.	c #020101",
";.	c #4A2D34",
">.	c #B56F7F",
",.	c #B77180",
"'.	c #0D0809",
").	c #74986D",
"!.	c #2D4533",
"~.	c #3D3F63",
"{.	c #737AB8",
"].	c #739A99",
"^.	c #6EB373",
"/.	c #64A368",
"(.	c #243B26",
"_.	c #619362",
":.	c #050604",
"<.	c #9D616E",
"[.	c #B67080",
"}.	c #040604",
"|.	c #6CAE70",
"1.	c #71A787",
"2.	c #101119",
"3.	c #57598D",
"4.	c #7376BC",
"5.	c #7378BA",
"6.	c #64907A",
"7.	c #090F0A",
"8.	c #74BC78",
"9.	c #3A5E3C",
"0.	c #1C2E1D",
"a.	c #5A4343",
"b.	c #AB8481",
"c.	c #92977B",
"d.	c #0A110B",
"e.	c #5D9761",
"f.	c #495F62",
"g.	c #0E0E17",
"h.	c #7073B7",
"i.	c #7476BC",
"j.	c #7476BB",
"k.	c #51597F",
"l.	c #162517",
"m.	c #578E5B",
"n.	c #172618",
"o.	c #325134",
"p.	c #6AAC6E",
"q.	c #3E6641",
"r.	c #528556",
"s.	c #243A25",
"t.	c #619E65",
"u.	c #080B0B",
"v.	c #484A75",
"w.	c #7477BC",
"x.	c #5E6098",
"y.	c #4D4F7E",
"z.	c #2C2D47",
"A.	c #19281A",
"B.	c #4D7E51",
"C.	c #62A067",
"D.	c #19291A",
"E.	c #000000",
"F.	c #588F5C",
"G.	c #111B11",
"H.	c #5C9560",
"I.	c #080D08",
"J.	c #030503",
"K.	c #020303",
"L.	c #343555",
"M.	c #7275B9",
"N.	c #7477BB",
"O.	c #2B2D47",
"P.	c #06070B",
"Q.	c #345537",
"R.	c #6DB071",
"S.	c #68A96D",
"T.	c #72B876",
"U.	c #69AA6D",
"V.	c #6BAE70",
"W.	c #65A469",
"X.	c #4F8052",
"Y.	c #5E8F6B",
"Z.	c #7376BA",
"`.	c #6E71B2",
" +	c #6B6EAE",
".+	c #686BA9",
"++	c #68A076",
"@+	c #74B57F",
"#+	c #7479B9",
"$+	c #7480B2",
"%+	c #7377BB",
"&+	c #73989B",
"*+	c #73B67D",
"=+	c #7380B2",
"-+	c #74B380",
";+	c #7493A0",
". . . . . . . . . . . . . . . . . . . . . . . . ",
"+ + + + + + + + + + + + + + + + + + + + + + + + ",
"@ @ @ @ @ # $ % & @ @ @ @ @ @ @ @ @ @ @ @ @ @ @ ",
". . . . * = - ; > , . . . . . . . . . . . . . . ",
". ' . ) ! ; ~ ; ; > { ) ) . ' . . ' . ) ) . ' . ",
"] ] ] ^ > / / / / / ( ' ] ] ] ] ] ] ] ' ] ] ] ] ",
". . . % ; ; ; ; ; ; _ # . . . . . . . . . . . . ",
". @ : < [ [ } | ; 1 2 3 4 5 : . . 6 7 7 7 8 9 0 ",
") ) a b c d e f g g h i j k l m ) n l o b p q ] ",
") ) r s t u v w ; x y z A B C D ) ) E F G H I ) ",
"# ' J K L M N O M P Q R @ # S T # ' # U 7 # ' # ",
") ) V W X Y Z ` /  ...# @ ) +.@.#.' ] $.%.) ) ) ",
". . &.*.=.-.;.>.,.'.).. . ' !.~.{.].^.l /.. . . ",
") ] D (._.:.<.~ [.}.|.] ] 1.2.3.4.5.6.7.^.] ) ] ",
"8.+ T 9.] 0.a.b.c.d.e.+ 8.f.g.h.i.j.k.l.8.+ + + ",
"@ m.n.o.p.q.j r.] (.s.t.n u.v.w.x.y.z.A.B.C.@ @ ",
"0 D.E.E.F.: E.G.+ H.I.J.K.L.M.N.O.P.E.E.E.Q.+ + ",
"] R.S.S.T.A U.V.# ] W.X.Y.Z.w.w.`. +.+++S.^.@ @ ",
"8.# 8.# @ 8.# 8.8.# 8.# @+#+N.w.w.N.#+@+@ 8.# 8.",
"] + + ] ] + + ] ] + + ] ' $+N.%+%+N.$+' ] + + ] ",
"' ' ' ' ' ' ' ' ' ' ' ' ' &+%+%+%+%+&+' ' ' ' ' ",
") ) ) . . ) ) ) ) ) ) . . *+=+4.4.=+*+. . ) ) ) ",
"# # # # # @ @ # # # # # # @ -+;+;+-+# # # @ @ # ",
"' ' ' ' ' # ' ' ' ' ' ' ' # ' ' ' ' ' ' ' # ' ' "};
