/* XPM */
static char * SPECT_xpm[] = {
"24 24 181 2",
"  	c None",
". 	c #BF74C5",
"+ 	c #C075C6",
"@ 	c #B971BF",
"# 	c #9A5E9F",
"$ 	c #B06BB6",
"% 	c #BD73C3",
"& 	c #B16CB7",
"* 	c #B06BB5",
"= 	c #BE74C4",
"- 	c #C074C6",
"; 	c #623B65",
"> 	c #080508",
", 	c #442946",
"' 	c #A464A9",
") 	c #5D3960",
"! 	c #2E1C2F",
"~ 	c #402742",
"{ 	c #B46DBA",
"] 	c #78497C",
"^ 	c #472B49",
"/ 	c #A967AE",
"( 	c #2F1C30",
"_ 	c #341F35",
": 	c #6E4372",
"< 	c #754778",
"[ 	c #BC72C2",
"} 	c #130B14",
"| 	c #1C111D",
"1 	c #060306",
"2 	c #B46EBA",
"3 	c #331F34",
"4 	c #000000",
"5 	c #76487A",
"6 	c #59365C",
"7 	c #A363A8",
"8 	c #7E4D82",
"9 	c #09050A",
"0 	c #3F2641",
"a 	c #4E2F50",
"b 	c #A162A6",
"c 	c #A766AC",
"d 	c #362037",
"e 	c #AF6AB5",
"f 	c #201321",
"g 	c #BE73C4",
"h 	c #794A7D",
"i 	c #4A2D4C",
"j 	c #6B416E",
"k 	c #513154",
"l 	c #9F61A4",
"m 	c #824F86",
"n 	c #38223A",
"o 	c #AE6AB4",
"p 	c #704474",
"q 	c #4B2D4D",
"r 	c #462A48",
"s 	c #3E2640",
"t 	c #3D253F",
"u 	c #905895",
"v 	c #6C4270",
"w 	c #492C4C",
"x 	c #8C5590",
"y 	c #BB72C1",
"z 	c #B56EBA",
"A 	c #4F3052",
"B 	c #B26CB8",
"C 	c #241626",
"D 	c #BC73C2",
"E 	c #A263A7",
"F 	c #5C385F",
"G 	c #452A47",
"H 	c #653D68",
"I 	c #533356",
"J 	c #8B5590",
"K 	c #77487A",
"L 	c #523255",
"M 	c #7D4C81",
"N 	c #86528A",
"O 	c #A967AF",
"P 	c #5A375D",
"Q 	c #563459",
"R 	c #482C4B",
"S 	c #A766AD",
"T 	c #452A48",
"U 	c #A866AD",
"V 	c #955B9A",
"W 	c #724576",
"X 	c #4F3051",
"Y 	c #B76FBC",
"Z 	c #BF75C5",
"` 	c #995D9E",
" .	c #513153",
"..	c #B36DB9",
"+.	c #724575",
"@.	c #925997",
"#.	c #503153",
"$.	c #9C5FA1",
"%.	c #3A233C",
"&.	c #955A99",
"*.	c #915896",
"=.	c #673F6A",
"-.	c #B26DB8",
";.	c #87528B",
">.	c #88538C",
",.	c #7E4C82",
"'.	c #4B2E4E",
").	c #B56EBB",
"!.	c #050306",
"~.	c #221523",
"{.	c #663E69",
"].	c #603B64",
"^.	c #6F4473",
"/.	c #8F5793",
"(.	c #1A101B",
"_.	c #804E84",
":.	c #7C4B80",
"<.	c #8B548F",
"[.	c #432845",
"}.	c #030103",
"|.	c #57355A",
"1.	c #010001",
"2.	c #9B5EA0",
"3.	c #2C1B2D",
"4.	c #6D4371",
"5.	c #965B9B",
"6.	c #C075C5",
"7.	c #B870BE",
"8.	c #623C65",
"9.	c #C074C5",
"0.	c #4C2E4E",
"a.	c #0F090F",
"b.	c #422844",
"c.	c #482C4A",
"d.	c #B66FBC",
"e.	c #6D4270",
"f.	c #975C9C",
"g.	c #BF74C6",
"h.	c #683F6B",
"i.	c #AA68B0",
"j.	c #824F87",
"k.	c #553458",
"l.	c #6E4371",
"m.	c #965B9A",
"n.	c #563458",
"o.	c #5D3860",
"p.	c #5B385E",
"q.	c #77487B",
"r.	c #4A2D4D",
"s.	c #211422",
"t.	c #714575",
"u.	c #714574",
"v.	c #B76FBD",
"w.	c #A061A5",
"x.	c #89548E",
"y.	c #B66EBB",
"z.	c #BA71C0",
"A.	c #0A060B",
"B.	c #935997",
"C.	c #0B070C",
"D.	c #1D111D",
"E.	c #1B101C",
"F.	c #633C66",
"G.	c #110A11",
"H.	c #0B060B",
"I.	c #AF6AB4",
"J.	c #AB68B1",
"K.	c #000001",
"L.	c #673F6B",
"M.	c #020102",
"N.	c #2C1B2E",
"O.	c #0E080F",
"P.	c #6F4372",
"Q.	c #29192A",
"R.	c #3C253E",
"S.	c #9B5FA0",
"T.	c #B46DB9",
"U.	c #9E60A3",
"V.	c #683F6C",
"W.	c #B26CB7",
"X.	c #B16CB6",
". . . . . . . . . . . . . . . . . . . . . . . . ",
". . . . . . . . . . . . . . . . . . . . . . . . ",
". . . . . . . . . . . . . . . . . . . . . . . . ",
". . . . . . . . . . . . . . . . . . . . . . . . ",
". . . . . . . . . . . . . . . . . . . . . . . . ",
"+ + @ # $ % + + + + + + + + + + & * = + + + + + ",
"+ - ; > , ' ) ! ~ { ] ! ! ^ / @ ( _ : < ! ! ^ / ",
". [ } | 1 2 3 4 4 5 6 4 4 4 7 8 1 9 0 a 4 4 4 b ",
"+ c d e f g h i j k l 3 m n o 0 5 p q r < s t / ",
". u v . w . x ] y , z A . a B C D E F G E H I $ ",
"- J K - L - M N D r O P Q R S T - U H , V W X Y ",
"Z `  .+ ..- +.@.c #.$.r %.&.*.=.Z -.;.T >.,.'.% ",
"- ).!.~.@ - {.` ].^./.4 (.- ,._.- - - . :.<.. - ",
"+ + [.}.m + |.4 1.2.m f 3.+ W u + + + + 4.5.+ + ",
"6.y 7.=.8.9.0.a.b.. < u c.d.e.f.6.9.6.9.; E 6.9.",
"g.h.. i.|.. T U [ . h.$.j.k.l.m.g.. . . n.o . . ",
"+ b.+ b o.+ [.+ + + p.U 7.a q.N + B . + r.@ + + ",
"Z s.7.t.u.@ t v.Z [ q E w.|.x.F . k.y.d.~ 2 + Z ",
"z.1 n } m.5 A.0 . B.C.D.E.F.U G.G H.I.F H.i . . ",
"J.! K.| [ L.M.N.. ;.O.4 4 P.. Q.4 c.. i 4 R.. . ",
"..*.t.S.6.2 E / 6.7.U b b T.6.U.V.W.6.X.b J.6.Z ",
"Z 6.6.6.Z 6.6.6.Z 6.6.6.Z 6.6.6.Z 6.6.6.Z 6.6.6.",
"Z . . . Z . . . Z . . . Z . . . Z . . . Z . . . ",
". 9.. . . 9.. . . 9.. . . 9.. . . 9.. . . 9.. . "};
