/* XPM */
static char * study_xpm[] = {
"24 24 121 2",
"  	c None",
". 	c #949494",
"+ 	c #7C7C7C",
"@ 	c #535353",
"# 	c #939393",
"$ 	c #929292",
"% 	c #5A5A5A",
"& 	c #818181",
"* 	c #848484",
"= 	c #181818",
"- 	c #080808",
"; 	c #959595",
"> 	c #4E4E4E",
", 	c #000000",
"' 	c #1D1D1D",
") 	c #595959",
"! 	c #313131",
"~ 	c #242424",
"{ 	c #1A1A1A",
"] 	c #1C1C1C",
"^ 	c #3C3C3C",
"/ 	c #0A0A0A",
"( 	c #707070",
"_ 	c #333333",
": 	c #323232",
"< 	c #909090",
"[ 	c #262626",
"} 	c #3A3A3A",
"| 	c #363636",
"1 	c #868686",
"2 	c #838383",
"3 	c #8C8C8C",
"4 	c #7B7B7B",
"5 	c #828282",
"6 	c #343434",
"7 	c #878787",
"8 	c #787878",
"9 	c #777777",
"0 	c #888888",
"a 	c #3D3D3D",
"b 	c #464646",
"c 	c #8B8B8B",
"d 	c #515151",
"e 	c #161616",
"f 	c #767676",
"g 	c #494949",
"h 	c #2E2E2E",
"i 	c #6C6C6C",
"j 	c #0D0D0D",
"k 	c #919191",
"l 	c #1F1F1F",
"m 	c #353535",
"n 	c #4F4F4F",
"o 	c #555555",
"p 	c #060606",
"q 	c #656565",
"r 	c #010101",
"s 	c #030303",
"t 	c #7A7A7A",
"u 	c #505050",
"v 	c #6D6D6D",
"w 	c #121212",
"x 	c #171717",
"y 	c #3B3B3B",
"z 	c #565656",
"A 	c #090909",
"B 	c #5F5F5F",
"C 	c #141414",
"D 	c #474747",
"E 	c #8E8E8E",
"F 	c #424242",
"G 	c #808080",
"H 	c #252525",
"I 	c #4B4B4B",
"J 	c #454545",
"K 	c #373737",
"L 	c #717171",
"M 	c #585858",
"N 	c #7D7D7D",
"O 	c #303030",
"P 	c #2B2B2B",
"Q 	c #444444",
"R 	c #434343",
"S 	c #2F2F2F",
"T 	c #666666",
"U 	c #626262",
"V 	c #737373",
"W 	c #525252",
"X 	c #686868",
"Y 	c #616161",
"Z 	c #5C5C5C",
"` 	c #7E7E7E",
" .	c #4A4A4A",
"..	c #5D5D5D",
"+.	c #636363",
"@.	c #6E6E6E",
"#.	c #797979",
"$.	c #676767",
"%.	c #404040",
"&.	c #6F6F6F",
"*.	c #272727",
"=.	c #696969",
"-.	c #898989",
";.	c #8F8F8F",
">.	c #191919",
",.	c #202020",
"'.	c #0F0F0F",
").	c #606060",
"!.	c #131313",
"~.	c #232323",
"{.	c #8A8A8A",
"].	c #040404",
"^.	c #020202",
"/.	c #292929",
"(.	c #050505",
"_.	c #858585",
":.	c #747474",
"<.	c #212121",
"[.	c #111111",
"}.	c #2A2A2A",
"|.	c #6B6B6B",
". . . . . . . . . . . . . . . . . . . . . . . . ",
". . . . . . . . . . . . . . . . . . . . . . . . ",
". . . . . . . . . . . . . . . . . . . . . . . . ",
". . . . . . . . . . . . . . . . . + @ # . . . . ",
". . $ % & * . # . . . . . . . . . = - # . . . . ",
"; ; > , ' ) ; ! ; ; ; ; ; ; ; ; # ~ { . ; ; ; ; ",
"; . ] ^ / ( . _ ; ; ; ; ; ; ; ; ; ; : ; ; ; ; ; ",
". < [ . } & $ | . . 1 2 3 + . . 4 5 6 7 8 3 9 1 ",
"; 0 a ; b c d - e f g h i j k 1 j l m n - o p 6 ",
". c | . q $ a r s t u ! v w # > x / y z A B / b ",
"; # C D E ; ( F G $ 1 a ; ! ; H 5 I J c y ; 6 # ",
"; ; K , @ ; L M ; ; N b . O $ P ; q n 2 Q ; O ; ",
"; ; 1 R S ; T U ; ; V W # _ 7 a ; X % 9 n ; O ; ",
"; Y . # S ; Z v ; ; X Z < | `  .; ..+.@.) ; O ; ",
"; _ . . O ; W #.; # B $.* %.` D ; R &.i % 9 O ; ",
". *.* N 6 .  .` 9 =.Z =.W D -.h ;.C f 9 K S } . ",
"; >.[ ,.u ; n S '.).X H A !.< w ~., a {.].^.J ; ",
". /.(.p & ; ( , x 1 * ^.w / $ y ^.{ _ . Q y u ; ",
"# ( i ( . . # Y 1 . . T * _.. c :.c {.. $ B B . ",
". . . . . . . . . . . . . . . . . . . 2 =.<.9 . ",
"; ; ; ; ; ; ; ; ; ; ; ; ; ; ; ; ; ; ; @., [.$ ; ",
"; . ; ; ; ; ; ; ; . ; ; ; ; ; ; ; . ; + }.|.; ; ",
". . . . . . . . . . . . . . . . . . . . . . . . ",
"; ; ; ; ; ; ; ; ; ; ; ; ; ; ; ; ; ; ; ; ; ; ; ; "};
