/* XPM */
static char * study_xpm[] = {
"24 24 167 2",
"  	c None",
". 	c #C58080",
"+ 	c #A56B6B",
"@ 	c #6E4848",
"# 	c #C47F7F",
"$ 	c #C27E7E",
"% 	c #784E4E",
"& 	c #AB6F6F",
"* 	c #AF7272",
"= 	c #C37F7F",
"- 	c #201515",
"; 	c #0B0707",
"> 	c #C68181",
", 	c #684444",
"' 	c #000000",
") 	c #271919",
"! 	c #774D4D",
"~ 	c #422B2B",
"{ 	c #301F1F",
"] 	c #241717",
"^ 	c #261818",
"/ 	c #503434",
"( 	c #0F0909",
"_ 	c #956161",
": 	c #442C2C",
"< 	c #C68080",
"[ 	c #432B2B",
"} 	c #BF7C7C",
"| 	c #342121",
"1 	c #4E3232",
"2 	c #482F2F",
"3 	c #B27474",
"4 	c #AE7171",
"5 	c #BB7979",
"6 	c #A46B6B",
"7 	c #A36A6A",
"8 	c #AD7070",
"9 	c #452D2D",
"0 	c #B37575",
"a 	c #A06868",
"b 	c #BA7979",
"c 	c #9E6767",
"d 	c #B57676",
"e 	c #523535",
"f 	c #5E3D3D",
"g 	c #B87878",
"h 	c #6B4646",
"i 	c #1D1313",
"j 	c #9D6666",
"k 	c #613F3F",
"l 	c #3D2828",
"m 	c #8F5D5D",
"n 	c #120B0B",
"o 	c #C17D7D",
"p 	c #B37474",
"q 	c #120C0C",
"r 	c #291B1B",
"s 	c #472E2E",
"t 	c #694545",
"u 	c #714949",
"v 	c #090606",
"w 	c #B97878",
"x 	c #492F2F",
"y 	c #865757",
"z 	c #513535",
"A 	c #020101",
"B 	c #040303",
"C 	c #A26969",
"D 	c #6B4545",
"E 	c #905E5E",
"F 	c #191010",
"G 	c #201414",
"H 	c #0E0909",
"I 	c #4F3333",
"J 	c #724A4A",
"K 	c #0D0808",
"L 	c #7F5252",
"M 	c #5D3D3D",
"N 	c #1B1111",
"O 	c #5F3E3E",
"P 	c #BC7B7B",
"Q 	c #966161",
"R 	c #583939",
"S 	c #AA6F6F",
"T 	c #C17E7E",
"U 	c #312020",
"V 	c #AC7070",
"W 	c #644141",
"X 	c #5C3C3C",
"Y 	c #C58181",
"Z 	c #493030",
"` 	c #6F4848",
" .	c #966262",
"..	c #754C4C",
"+.	c #A66C6C",
"@.	c #412A2A",
"#.	c #3A2525",
"$.	c #AD7171",
"%.	c #5A3B3B",
"&.	c #5A3A3A",
"*.	c #402929",
"=.	c #885858",
"-.	c #835555",
";.	c #996363",
">.	c #6D4747",
",.	c #B47575",
"'.	c #8B5A5A",
").	c #9F6767",
"!.	c #694444",
"~.	c #825454",
"{.	c #7B5050",
"].	c #915E5E",
"^.	c #8A5A5A",
"/.	c #A86D6D",
"(.	c #624040",
"_.	c #7C5151",
":.	c #845656",
"<.	c #925F5F",
"[.	c #764D4D",
"}.	c #C48080",
"|.	c #6E4747",
"1.	c #A16868",
"2.	c #7E5252",
"3.	c #895959",
"4.	c #B07272",
"5.	c #553737",
"6.	c #A76D6D",
"7.	c #593A3A",
"8.	c #946060",
"9.	c #352222",
"0.	c #A56C6C",
"a.	c #8C5B5B",
"b.	c #8B5B5B",
"c.	c #B67676",
"d.	c #3E2828",
"e.	c #BE7C7C",
"f.	c #1B1212",
"g.	c #4A3030",
"h.	c #4D3232",
"i.	c #221616",
"j.	c #332121",
"k.	c #2B1C1C",
"l.	c #3F2929",
"m.	c #150D0D",
"n.	c #805353",
"o.	c #1A1111",
"p.	c #2F1E1E",
"q.	c #B77777",
"r.	c #060404",
"s.	c #040202",
"t.	c #372424",
"u.	c #080505",
"v.	c #090505",
"w.	c #946161",
"x.	c #1F1414",
"y.	c #030202",
"z.	c #5B3B3B",
"A.	c #6A4545",
"B.	c #815454",
"C.	c #875858",
"D.	c #B17373",
"E.	c #9A6464",
"F.	c #B87777",
"G.	c #2D1D1D",
"H.	c #170F0F",
"I.	c #382424",
"J.	c #8E5C5C",
". . . . . . . . . . . . . . . . . . . . . . . . ",
". . . . . . . . . . . . . . . . . . . . . . . . ",
". . . . . . . . . . . . . . . . . . . . . . . . ",
". . . . . . . . . . . . . . . . . + @ # . . . . ",
". . $ % & * . = . . . . . . . . . - ; = . . . . ",
"> > , ' ) ! > ~ > > > > > > > > = { ] . > > > > ",
"> . ^ / ( _ . : > < < < > < < < > < [ < > < < < ",
". } | . 1 & $ 2 . . 3 4 5 6 . . 7 8 9 0 a b c 3 ",
"> d e > f g h ; i j k l m n o p q r s t ; u v 9 ",
". w x . y $ z A B C D ~ E F # , G H I J K L H M ",
"< = N O P < Q R S T p e < ~ < U V W X w I < 9 = ",
"Y > Z ' ` Y  ...Y > +.f . @.T #.Y y t $.%.Y @.Y ",
"< < 3 &.*.< =.-.< < ;.>.= : ,.z < '.% ).!.< @.< ",
"< ~.. # *.< {.].< < ^.{.} x /.(.< _.:.<.[.< @.< ",
"Y : . }.@.Y |.1.Y = 2.3.4.5.6.O Y 7.8.m % c @.Y ",
". 9.* 0.9 . (.6.).a.{.b.>.O c.d.e.f.j c g.*.h.. ",
"< i.j.k.D < !.l.m.n.'.U K o.} F p.' z q.r.s.X < ",
"}.t.u.v.& Y w.' x.3 4.y.F H $ I y.] : . z.I A.> ",
"= _ m Q . . = B.3 . . C.* D.. g E.w F.. $ 2.L . ",
". . . . . . . . . . . . . . . . . . . 4 a.G.).. ",
"Y Y Y Y Y Y Y Y Y Y Y Y Y Y Y Y Y Y Y <.' H.T Y ",
"Y . Y Y Y Y Y Y Y . Y Y Y Y Y Y Y . Y + I.J.Y Y ",
". . . . . . . . . . . . . . . . . . . . . . . . ",
"Y Y Y Y Y Y Y Y Y Y Y Y Y Y Y Y Y Y Y Y Y Y Y Y "};
