/* XPM */
const char * two_compartment_xpm[] = {
"201 85 7 1",
" 	c None",
".	c #000000",
"+	c #AAAAAA",
"@	c #555555",
"#	c #1D1D1D",
"$	c #393939",
"%	c #727272",
"                                                                                                                                   ...                                                                   ",
"                                                                                                                                   ...                                                                   ",
"                                                                                                                                   ...                                                                   ",
"                                                 +.+                                                                               ...   @..+                                                            ",
"        ...    +..                   @...........+..@+                                                                             ...  @..@                                                             ",
"        ...    @.@   @@@             @........... @.#.@                                                                            ... +..@                                                              ",
"        ...   +..+   ...             @........... @..+..@                                                                          ...+..@                                                               ",
"        ...   @..    ...                  ...      ..@ @..+                                                                        ......+                                                               ",
"  +@..@+...  +..@  @.....                 ...      @..   @.@+                                                                      ......@                                                               ",
" +.........  @..@  @.....                 ...      @..+   +@.@                                                                     ...@@..+                                                              ",
" ...+ +....  @..+    ...                  ...      +..@     +..@                                                                   ... +...           +@                                                 ",
"@..@   @...  ...     ...                  ...       ...       @..+                                                                 ...  @..@ @...+   +..                                                 ",
"...     ...  ...     ...                  ...       ...         @.@+                                                               ...  +.....  .. +....                                                 ",
"...     ...  ...     ...   ..........     ...       ...          +@.@                                                              ...   @..$@  ..  ++..                                                 ",
"...     ...  ...     ...   ..........     ...       ...            +..@                                                                        @.@    ..                                                 ",
"@..@   +...  ...     ...                  ...       ...              @..+  @@                                                                 +.@     ..                                                 ",
"+...+ +@...  @..     ...                  ...      +..@                @.@$..@                                                               @.+      ..                                                 ",
" @.........  @..     ....                 ...      @..@                 +@.#..@                                                             +.....    ..                                                 ",
"  @...@+@@@  +..@    +...                 ...      @..                   @$....@                @@....@@                                    @.....    ..                        @@....@@                 ",
"              @.@                                  ..@                   .......@          +@@...@@@@@@...@@+                                                              +@@...@@@@@@...@@+            ",
"              +..                                 @..                    @@......@+       @.@@@          @@@.@                                          +@                @.@@@          @@@.@           ",
"               @.+                                ..+                       +@@....+    +@.@                @.@+                                        @...@@          +@.@                @.@+         ",
"               +.@                               +.@                            @@..+  @.@+                  +@.@                                       @.......@@     @.@+                  +@.@        ",
"                                                                                   +@%@.@                      @.@+.................................................++@.@                      @.@+      ",
"                                                                                     .@+                        +@.                                     @.......@@+  .@+                        +@.      ",
"                                                                                    @.                            .@                                    @...@@+     @.                            .@     ",
"                                                                                   +.+                            +.+                                   +@+        +.+                            +.+    ",
"                                                                                   .@                              @.                                              .@                              @.    ",
"                                                                                  @@                                @@                                            @@                                @@   ",
"                                                                                 +.+                                +.+                                          +.+                                +.+  ",
"                                                                                 .@                 @..              @.                                          .@              +@...@+             @.  ",
"                                                                                +.                 @...               .+                                        +.              +.......+             .+ ",
"                                                                                @.              +@.....               .@                                        @.              @..@ +..@             .@ ",
"                                                                                @@              @......               @@                                        @@              ...   ...             @@ ",
"                                                                                .@                  ...               @.                                        .@              ...   ...             @. ",
"                                                                                .+                  ...               +.                                        .+                   +...             +. ",
"                                                                               +.                   ...                .+                                      +.                    @..@              .+",
"                                                                               @.                   ...                .@                                      @.                  +@..@               .@",
"                                                                               @@                   ...                @@                                      @@                 +...@                @@",
"                                                                               @.                   ...                .@                                      @.                +..@+                 .@",
"                                                                               +.                   ...                .+                                      +.               +..@                   .+",
"                                                                                .+                  ...               +.                                        .+              .........             +. ",
"                                                                                .@                  ...               @.                                        .@             +.........             @. ",
"                                                                                @@                  ...               @@                                        @@             @.........             @@ ",
"                                                                                @.                                    .@                                        @.                                    .@ ",
"                                                                                +.                                    .+                                        +.                                    .+ ",
"                                                                                 .@                                  @.                                          .@                                  @.  ",
"                                                                                 @.+                                +.@                                          @.+                                +.@  ",
"                                                                                  @@                                @@                                            @@                                @@   ",
"                                                                                  +.@                              @.+                                            +.@                              @.+   ",
"                                                                                   @.+                            +.@         @+                                   @.+                            +.@    ",
"                                                                                    @@                            @@      @@...@                                    @@                            @@     ",
"                                                                                    +.@                          @.+  @@.......@                                    +.@                          @.+     ",
"                                                                                     +..+                      +..++.................................................+..+                      +..+      ",
"                                                                                       @.@                    @.@    +@@.......@                                       @.@                    @.@        ",
"                                                                                        +..+                +..+         +@@...@                                        +..+                +..+         ",
"                                                                                          @.@@+          +@@.@               +@+                                          @.@@+          +@@.@           ",
"                                                                                           +@....@@++@@....@+                                                              +@....@@++@@....@+            ",
"                                                                                               @@@....@@@                                                                      @@@....@@@                ",
"                                                                       ...                         @@                              ...                                                                   ",
"                                                                       ...                         @@                              ...                                                                   ",
"                                                                       ...                         @@                              ...                                                                   ",
"                                                                       ...                         @@                              ...                                                                   ",
"                                                                       ...   @..+                  @@                              ...   @..+                                                            ",
"                                                                       ...  @..@                   @@                              ...  @..@                                                             ",
"                                                                       ... +..@                    @@                              ... +..@                                                              ",
"                                                                       ...+..@                     @@                              ...+..@                                                               ",
"                                                                       ......+                     @@                              ......+                                                               ",
"                                                                       ......@                     @@                              ......@                                                               ",
"                                                                       ...@@..+                    @@                              ...@@..+                                                              ",
"                                                                       ... +...           +@       @@                              ... +...    +@                                                        ",
"                                                                       ...  @..@ @...@   +..     ..$$..                            ...  @..@  +..   @...+                                                ",
"                                                                       ...  +...@.+ .. +....     ..##..                            ...  +...+....  ..  ..                                                ",
"                                                                       ...   @....  ..  ++..     @.##.@                            ...   @..@++..  +@  ..                                                ",
"                                                                                ..  ..    ..     @....@                                        ..     @.@                                                ",
"                                                                                ..  ..    ..      ....                                         ..    +.@                                                 ",
"                                                                                ..  ..    ..      ....                                         ..   @.+                                                  ",
"                                                                                +.@ ..    ..      @..@                                         ..  +.....                                                ",
"                                                                                 @...     ..      @..@                                         ..  @.....                                                ",
"                                                                                                   ..                                                                                                    ",
"                                                                                                   ..                                                                                                    ",
"                                                                                                   @@                                                                                                    ",
"                                                                                                   @@                                                                                                    ",
"                                                                                                                                                                                                         ",
"                                                                                                                                                                                                         "};
