/* XPM */
const char * two_compartment_xpm[] = {
"151 110 2 1",
" 	c None",
".	c #000000",
"                                                                                                                                                       ",
"                                                                                                                                                       ",
"                                                                                                                                                       ",
"                                                                                                                                                       ",
"                                                                                                                                                       ",
"                                                                 .                                                                                     ",
"                                                                 ..                                                                                    ",
"                                                                 ..                                                                                    ",
"                                                                 ..  ..                                                                                ",
"                                                                 .. ..                                                                                 ",
"                                                                 ....                                                                                  ",
"                                                                 ....                                                                                  ",
"                                                                 ....                                                                                  ",
"                                                                 .. ..    ...    ..                                                                    ",
"                                                                 .. ...  .. .. ....                                                                    ",
"                                                                 ..  ..  .  ..  ...                                                                    ",
"                                                                 .    ..   ..    ..                                                                    ",
"                                                                          ...    ..                                                                    ",
"                                                                         ..      ..                                                                    ",
"                                                                         ..      ..                                                                    ",
"                                                                         .....   ..                                                                    ",
"                                                                                                                                                       ",
"                      ............                                                                                                                     ",
"                   ..................                                                                                ...........                       ",
"                 ..........  ..........                                                                            ................                    ",
"               .....                .....                                                ..                     .......... ..........                  ",
"             .....                    ....                                              ........              .....               .....                ",
"            ....                       .....  ......................................................        .....                   .....              ",
"           ....                          ..............................................................    ....                       ....             ",
"          ...                             .............................................................  .....                         ....            ",
"         ...                               ....                                         ...........      ...                             ....          ",
"        ...                                 ....                                        ........       ....                               ....         ",
"       ...                                   ...                                         ..            ...                                 ...         ",
"       ...                                    ...                                                     ...                                   ...        ",
"      ...                                      ...                                                   ...                                     ...       ",
"      ..                                       ...                                                   ...                                     ...       ",
"     ...                                        ...                                                 ...                                       ...      ",
"     ..                                         ...                                                 ...                                        ..      ",
"    ...                                          ...                                               ...                                         ...     ",
"    ..                                           ...                                               ...                                          ..     ",
"    ..                                            ..                                               ..                                           ..     ",
"   ...                                            ...                                             ...                                           ...    ",
"   ..                    ..                       ...                                             ...                 .....                     ...    ",
"   ..                   ...                       ...                                             ..                  ..  ..                     ..    ",
"   ..                  ....                       ...                                             ..                 ..    .                     ..    ",
"   ..                    ..                       ...                                             ..                       ..                    ..    ",
"   ..                    ..                       ...                                             ..                      ..                     ..    ",
"   ..                    ..                       ...                                             ..                     ..                      ..    ",
"   ..                    ..                       ...                                            ...                    ..                       ..    ",
"   ..                    ..                       ...                                             ..                  ...                        ..    ",
"   ..                    ..                       ...                                             ..                  ..                         ..    ",
"   ..                    ..                       ...                                             ..                 .......                     ..    ",
"   ...                   ..                       ..                                              ..                  ......                     ..    ",
"    ..                                            ..                                              ...                                            ..    ",
"    ..                                           ...                                              ...                                           ...    ",
"    ...                                          ...                                               ..                                           ...    ",
"     ..                                         ...                                                ..                                           ..     ",
"     ...                                        ...                                                ...                                         ...     ",
"      ..                                       ...                                                  ..                                         ..      ",
"      ...                                      ...                                                  ...                                       ...      ",
"       ...                                    ...                                                    ..                                       ..       ",
"       ...                                   ...                                                     ...                                     ...       ",
"        ...                                 ...                                                       ...                                   ...        ",
"         ...                               ....                                                        ...                                 ...         ",
"          ...                             ....                                                         ....                               ....         ",
"           ....                          ....                                                           ....                             ....          ",
"            .....                      ....                                                              ....                           ....           ",
"             .....                   .....                                                                .....                       .....            ",
"               .....               ......                                                                   .....                   .....              ",
"                 ......................                                                                      ......               ......               ",
"                   ..................                                                                          .......         .......                 ",
"                      ...........                                                                                ...................                   ",
"                                                                                                                     ...........                       ",
"                                                                                                                          ...                          ",
"                                                                                                                          ...                          ",
"                                                                                                                          ...                          ",
"                                                                                                                          ...                          ",
"                                                                                         .                                ...                          ",
"                                                                                         .                                ...                          ",
"                                                                                         .                                ...                          ",
"                                                                                         .   ..                           ...                          ",
"                                                                                         .  ..                            ...                          ",
"                                                                                         ....                             ...                          ",
"                                                                                         ....                             ...                          ",
"                                                                                         ....     ..   ...                ...                          ",
"                                                                                         .  ..   ...  .. ..               ...                          ",
"                                                                                         .  ...  ...  .  ..               ...                          ",
"                                                                                         .   ..   ..     ..               ...                          ",
"                                                                                                  ..   ...                ...                          ",
"                                                                                                  ..   ..                .....                         ",
"                                                                                                  ..  ..                ........                       ",
"                                                                                                  ..  .....             ........                       ",
"                                                                                                                        .......                        ",
"                                                                                                                        .......                        ",
"                                                                                                                         ......                        ",
"                                                                                                                         .....                         ",
"                                                                                                                         .....                         ",
"                                                                                                                          ....                         ",
"                                                                                                                          ....                         ",
"                                                                                                                          ...                          ",
"                                                                                                                          ...                          ",
"                                                                                                                          ...                          ",
"                                                                                                                           ..                          ",
"                                                                                                                           ..                          ",
"                                                                                                                           .                           ",
"                                                                                                                           .                           ",
"                                                                                                                                                       ",
"                                                                                                                                                       ",
"                                                                                                                                                       ",
"                                                                                                                                                       "};
